<?xml version="1.0" encoding="UTF-8" standalone="no"?>
<!DOCTYPE svg PUBLIC "-//W3C//DTD SVG 1.1//EN" "http://www.w3.org/Graphics/SVG/1.1/DTD/svg11.dtd">
<svg width="100%" height="100%" viewBox="0 0 500 500" version="1.1" xmlns="http://www.w3.org/2000/svg" xmlns:xlink="http://www.w3.org/1999/xlink" xml:space="preserve" xmlns:serif="http://www.serif.com/" style="fill-rule:evenodd;clip-rule:evenodd;stroke-linejoin:round;stroke-miterlimit:2;">
    <path d="M484.85,124.75C484.822,116.268 484.046,107.805 482.53,99.46C480.59,89.27 477.86,79.34 472.98,70.13C467.898,60.423 461.283,51.599 453.39,44C441.469,32.331 426.741,23.926 410.63,19.6C395.8,15.6 380.63,14.76 365.42,14.78C365.37,14.713 365.338,14.633 365.33,14.55L134.59,14.55L134.59,14.78C125.94,14.94 117.27,14.87 108.67,15.94C99.239,16.94 89.954,19.024 81,22.15C67.074,27.287 54.503,35.537 44.25,46.27C32.497,58.214 24.032,72.998 19.68,89.18C15.74,103.9 14.88,118.91 14.86,134.03L14.7,365.7C14.98,376.15 15.07,386.7 16.83,397.06C18.7,408.06 21.37,418.77 26.47,428.75C33.254,442.119 42.92,453.817 54.77,463C63.23,469.743 72.814,474.939 83.08,478.35C98.2,483.23 113.8,485.1 129.63,485.19C139.51,485.25 149.37,485.5 159.25,485.46C194.7,485.31 230.14,485.46 265.59,485.46L265.59,328.22L212.71,328.22L212.71,265L265.6,265L265.6,219.7C265.6,219.7 261.78,144.45 335.94,138.45L392.1,138.45L392.1,195.7L351.2,195.7C351.2,195.7 333.76,199 331,215.34L331,263.87L389.35,263.87L382.81,324.4L329.94,324.4L329.94,485.4C344.787,485.327 359.637,485.2 374.49,485.02C383.967,484.812 393.411,483.809 402.72,482.02C420.32,478.917 436.703,470.941 450,459C465.78,444.92 476.43,427.7 481.24,406.91C484.39,393.32 485.17,379.53 485.31,365.7L485.31,362.94C485.3,361.87 484.89,127.84 484.85,124.75Z" style="fill:rgb(66,103,178);fill-rule:nonzero;"/>
</svg>
