<?xml version="1.0" encoding="UTF-8" standalone="no"?><!DOCTYPE svg PUBLIC "-//W3C//DTD SVG 1.1//EN" "http://www.w3.org/Graphics/SVG/1.1/DTD/svg11.dtd"><svg width="100%" height="100%" viewBox="0 0 13889 13889" version="1.1" xmlns="http://www.w3.org/2000/svg" xmlns:xlink="http://www.w3.org/1999/xlink" xml:space="preserve" xmlns:serif="http://www.serif.com/" style="fill-rule:evenodd;clip-rule:evenodd;stroke-linejoin:round;stroke-miterlimit:2;"><g><g><rect x="-14.375" y="619.406" width="13888.9" height="13888.9" style="fill:#fff;fill-opacity:0;"/></g><path d="M7169.11,3229.83c1028.72,0 1962.61,417.195 2638.39,1089.46c677.5,673.85 1097.06,1601.1 1097.06,2624.37c-0,1023.28 -419.5,1952.17 -1097.06,2624.44c-675.778,673.833 -1609.67,1091.11 -2638.39,1091.11c-1025.5,0 -1959.23,-417.278 -2636.76,-1091.11c-675.795,-672.278 -1095.3,-1601.17 -1095.3,-2624.44c0,-1023.28 419.428,-1950.52 1095.3,-2624.37c677.527,-672.266 1611.26,-1089.46 2636.76,-1089.46Z" style="fill:#003049;"/><path d="M7169.11,3411.91c978.778,0 1866.06,395.722 2510.22,1036.57c642.556,639.05 1042.11,1523.3 1042.11,2495.18c0,973.611 -399.555,1856.11 -1042.11,2496.83c-644.111,639.167 -1531.44,1036.61 -2510.22,1036.61c-975.444,0 -1864.33,-397.444 -2506.91,-1036.61c-644.167,-640.778 -1041.98,-1523.33 -1041.98,-2496.83c0,-971.889 397.811,-1856.21 1041.98,-2495.18c642.578,-640.85 1531.47,-1036.57 2506.91,-1036.57Z" style="fill:#c1121f;"/><path d="M7169.11,3431.8c973.722,0 1856,394.139 2495.33,1029.94c422.889,418.212 732.278,937.406 898.834,1508.37c11.555,-19.889 23.222,-38 34.889,-56.278c-173.056,-567.911 -486.056,-1077.84 -897.167,-1486.89c-649.167,-645.75 -1544.72,-1046.37 -2531.89,-1046.37c-983.833,-0 -1879.39,400.622 -2528.53,1046.37c-318.283,316.105 -574.605,689.005 -755.705,1099.4l54.905,0c177.756,-397.066 427.206,-757.977 735.817,-1064.6c640.778,-635.805 1523.01,-1029.94 2493.51,-1029.94Zm3529.17,3667.42c-40.167,905.722 -427.945,1725.33 -1033.83,2326.33c-639.333,637.555 -1521.61,1031.61 -2495.33,1031.61c-970.5,-0 -1852.73,-394.167 -2493.58,-1031.61c-585.945,-582.723 -968.767,-1369.33 -1027.06,-2241.83c-17.534,-1.389 -34.861,-4.722 -51.661,-9.944c56.561,890.778 446.088,1693.89 1043.7,2288.33c649.206,645.722 1544.71,1044.72 2528.55,1044.72c987.055,0 1882.67,-399 2531.89,-1044.72c609.223,-606.055 1002,-1430.61 1047,-2341.33c-17.111,-5.778 -33.722,-13 -49.666,-21.556Zm-3529.17,-3857.86c-1023.78,0 -1954.26,415.606 -2628.47,1086.14c-369.566,367.622 -662.538,812.988 -850.6,1306.44c-12.65,-12.333 -25.977,-23.944 -39.922,-34.777c189.861,-490.895 481.478,-936.123 855.645,-1306.32c682.5,-680.556 1626.34,-1101.21 2663.34,-1101.21c1040.33,0 1982.67,420.65 2666.72,1101.21c406.167,403.861 720.834,899.089 908.834,1450.37l-40,39.722c-183.5,-549.027 -493.056,-1047.52 -903.778,-1455.44c-675.889,-670.539 -1606.39,-1086.14 -2631.78,-1086.14Zm3692.06,3225.42c11.666,81.055 18.444,165.611 25.055,248.389c11.556,24.833 29.834,46.333 53.334,61.333c-6.889,-152.056 -23.056,-303.556 -48.389,-453.667c-11.556,39.723 -23.389,91.167 -30,143.945Zm25.055,683.833c16.5,1.611 33.222,1.611 51.556,1.611c-53.167,950.445 -464.278,1809.72 -1101.94,2443.89c-684.055,678.889 -1626.39,1101.06 -2666.72,1101.06c-1037,-0 -1980.92,-422.167 -2663.34,-1101.06c-662.539,-659 -1080.38,-1558 -1106.97,-2551.5c6.7,8.222 25,31.5 53.244,56.333c39.995,957 449.478,1823 1088.67,2458.78c674.211,672.111 1604.73,1087.89 2628.45,1087.89c1025.33,0 1955.94,-415.778 2631.78,-1087.89c627.445,-624.222 1033.67,-1472 1085.28,-2409.11Z" style="fill:#fff;"/><path d="M3152.75,5315.31l-357.827,1375.46c-86.854,333.249 -152.312,559.804 -196.374,679.666c-44.063,119.862 -99.491,223.868 -166.286,312.018c-98.19,126.849 -208.361,190.274 -330.513,190.274c-130.832,0 -235.153,-71.218 -312.961,-213.655c-77.808,-142.437 -113.714,-328.143 -107.718,-557.117c7.909,-302.074 79.01,-566.523 213.302,-793.347c72.007,-121.475 160.757,-219.299 266.249,-293.474c105.492,-74.175 208.773,-111.262 309.843,-111.262c48.364,-0 87.083,19.081 116.157,57.243c29.074,38.163 42.808,87.881 41.204,149.156c-1.746,66.65 -19.26,119.862 -52.545,159.637c-18.573,22.575 -54.958,38.7 -109.157,48.375c-124.518,19.35 -225.319,68.262 -302.401,146.737c-64.991,66.65 -117.158,152.649 -156.5,257.999c-39.342,105.349 -60.547,216.612 -63.615,333.786c-3.153,120.4 12.648,215.537 47.402,285.412c34.753,69.874 83.443,104.812 146.069,104.812c74.407,-0 140.977,-55.9 199.71,-167.7c58.733,-111.799 124.636,-307.986 197.709,-588.56l357.827,-1375.46l-181.367,-0c-85.568,-0 -126.973,-52.675 -124.215,-158.025c1.858,-70.95 18.506,-126.581 49.945,-166.893c31.438,-40.312 74.13,-60.468 128.075,-60.468l635.251,-0l64.43,25.799c25.395,24.725 37.263,68.8 35.602,132.225c-1.858,70.95 -18.506,126.581 -49.945,166.893c-31.438,40.312 -74.13,60.469 -128.075,60.469l-169.276,-0Z" style="fill-rule:nonzero;stroke:#fff;stroke-opacity:0.23;stroke-width:33.33px;"/><path d="M3813.13,5966.75c66.711,-61.275 121.148,-91.912 163.312,-91.912c59.526,0 107.602,28.756 144.23,86.268c36.628,57.513 53.773,130.881 51.437,220.106c-1.407,53.75 -10.382,112.337 -26.924,175.762l-108.722,422.473l106.96,0c78.127,0 115.939,47.837 113.433,143.512c-1.717,65.575 -16.85,116.637 -45.4,153.187c-28.549,36.55 -67.627,54.825 -117.231,54.825l-186.948,-0c-39.684,-0 -72.499,-19.619 -98.444,-58.856c-25.945,-39.238 -38.171,-87.344 -36.68,-144.318c1.014,-38.7 9.439,-88.15 25.277,-148.35l95.111,-364.423c11.751,-46.225 17.936,-81.163 18.556,-104.813c1.604,-61.274 -21.156,-91.912 -68.28,-91.912c-63.246,0 -119.02,93.525 -167.322,280.574l-115.782,443.436c-36.55,140.825 -87.069,211.237 -151.555,211.237c-25.422,-0 -46.758,-13.975 -64.008,-41.925c-17.25,-27.95 -25.354,-61.812 -24.313,-101.587c0.788,-30.1 6.368,-65.575 16.738,-106.425l11.371,-43.537l449.894,-1730.21c39.228,-148.35 89.535,-222.524 150.921,-222.524c25.422,-0 46.892,14.781 64.41,44.343c17.518,29.563 25.728,65.306 24.63,107.231c-0.901,34.4 -10.299,85.462 -28.194,153.187l-196.477,754.647Z" style="fill-rule:nonzero;stroke:#fff;stroke-opacity:0.23;stroke-width:33.33px;"/><path d="M4655.68,6658.51c-2.111,80.625 31.867,120.937 101.933,120.937l276.237,0c78.127,0 115.938,47.837 113.433,143.512c-1.717,65.575 -16.85,116.637 -45.4,153.187c-28.55,36.55 -67.627,54.825 -117.232,54.825l-263.215,-0c-97.969,-0 -171.433,-41.925 -220.393,-125.775c-48.959,-83.849 -71.327,-206.399 -67.105,-367.648c5.433,-207.475 50.578,-386.461 135.437,-536.961c84.858,-150.499 183.093,-225.749 294.704,-225.749c81.227,0 145.524,36.819 192.891,110.456c47.366,73.637 69.473,170.655 66.321,291.055c-3.8,145.125 -40.719,252.624 -110.755,322.499c-38.865,39.775 -95.811,59.662 -170.838,59.662l-186.018,0Zm52.329,-293.474l102.31,0c66.346,0 99.251,-25.262 98.713,-75.787c-0.368,-56.975 -21.014,-85.462 -61.938,-85.462c-57.045,-0 -103.407,53.75 -139.085,161.249Z" style="fill-rule:nonzero;stroke:#fff;stroke-opacity:0.23;stroke-width:33.33px;"/><path d="M6149.8,6029.64l-46.505,0c-86.188,0 -127.945,-51.062 -125.271,-153.186c1.914,-73.1 18.443,-130.075 49.585,-170.925c31.143,-40.85 73.996,-61.275 128.562,-61.275l130.212,0l27.647,-61.274c204.802,-456.874 404.552,-685.31 599.25,-685.31c96.73,-0 174.52,48.374 233.373,145.124c58.852,96.75 86.28,221.449 82.283,374.099c-5.63,214.999 -68.25,380.548 -187.862,496.648c-79.534,77.4 -196.808,116.099 -351.823,116.099l-279.027,0c-99.65,300.999 -152.234,556.848 -157.751,767.548c-3.096,118.249 12.408,212.849 46.514,283.799c34.106,70.949 80.921,106.424 140.447,106.424c82.468,0 166.511,-83.85 252.13,-251.549c85.619,-167.699 151.268,-377.861 196.947,-630.485l17.414,-96.75c23.925,-132.224 66.58,-198.336 127.966,-198.336c32.863,-0 59.131,20.962 78.806,62.887c19.674,41.925 28.638,96.212 26.893,162.862c-5.517,210.699 -64.119,459.56 -175.804,746.584c-155.594,400.974 -335.7,601.461 -540.32,601.461c-127.112,-0 -229.191,-73.906 -306.239,-221.718c-77.047,-147.812 -112.53,-337.818 -106.45,-570.017c5.742,-219.299 52.083,-473.536 139.023,-762.71Zm415.61,-385.386l181.367,0c153.775,0 232.562,-72.562 236.362,-217.686c1.126,-43 -8.014,-78.744 -27.42,-107.231c-19.406,-28.488 -44.61,-42.731 -75.613,-42.731c-47.745,-0 -99.758,32.787 -156.041,98.362c-56.282,65.575 -109.167,155.337 -158.655,269.286Z" style="fill-rule:nonzero;stroke:#fff;stroke-opacity:0.23;stroke-width:33.33px;"/><path d="M7558.27,6563.38l229.123,-509.548l17.882,-43.537c38.328,-90.3 79.814,-135.45 124.458,-135.45c29.143,0 52.6,15.856 70.371,47.569c17.772,31.712 26.01,72.293 24.715,121.743c-1.407,53.75 -21.81,122.549 -61.21,206.399l-364.357,772.385c-40.724,87.074 -87.128,130.612 -139.213,130.612c-44.025,-0 -78.051,-26.606 -102.08,-79.819c-24.029,-53.212 -34.833,-126.043 -32.413,-218.493c0.507,-19.35 1.225,-34.937 2.155,-46.762l50.33,-643.385c6.621,-87.075 21.845,-153.456 45.674,-199.143c23.828,-45.687 54.964,-68.531 93.408,-68.531c58.905,-0 87.007,51.6 84.305,154.799c-0.394,15.05 -2.31,40.85 -5.747,77.4l-37.401,433.761Z" style="fill-rule:nonzero;stroke:#fff;stroke-opacity:0.23;stroke-width:33.33px;"/><path d="M8316.92,6658.51c-2.111,80.625 31.867,120.937 101.934,120.937l276.236,0c78.127,0 115.939,47.837 113.433,143.512c-1.717,65.575 -16.85,116.637 -45.4,153.187c-28.55,36.55 -67.627,54.825 -117.231,54.825l-263.216,-0c-97.969,-0 -171.433,-41.925 -220.392,-125.775c-48.96,-83.849 -71.328,-206.399 -67.106,-367.648c5.433,-207.475 50.578,-386.461 135.437,-536.961c84.859,-150.499 183.093,-225.749 294.704,-225.749c81.228,0 145.525,36.819 192.891,110.456c47.367,73.637 69.474,170.655 66.321,291.055c-3.8,145.125 -40.718,252.624 -110.754,322.499c-38.866,39.775 -95.812,59.662 -170.839,59.662l-186.018,0Zm52.329,-293.474l102.31,0c66.346,0 99.251,-25.262 98.714,-75.787c-0.369,-56.975 -21.015,-85.462 -61.939,-85.462c-57.045,-0 -103.407,53.75 -139.085,161.249Z" style="fill-rule:nonzero;stroke:#fff;stroke-opacity:0.23;stroke-width:33.33px;"/><path d="M9227.33,6250.55l-35.169,135.45c-31.676,120.399 -70.456,180.599 -116.34,180.599c-27.903,-0 -50.775,-14.512 -68.617,-43.537c-17.841,-29.025 -26.199,-65.038 -25.073,-108.037c0.647,-24.725 8.566,-66.65 23.755,-125.775l116.88,-449.886c28.266,-108.574 65.651,-162.862 112.155,-162.862c45.885,0 73.112,37.625 81.683,112.875l6.131,49.987c3.045,25.8 8.204,41.925 15.475,48.375c7.272,6.45 25.479,9.675 54.622,9.675l217.641,-0c81.228,-0 120.547,49.45 117.957,148.349c-3.575,136.525 -56.827,204.787 -159.757,204.787l-10.653,16.125c-102.868,163.399 -155.47,289.711 -157.807,378.936c-2.336,89.225 25.018,133.837 82.064,133.837l117.191,0c78.748,0 116.883,47.3 114.406,141.9c-1.746,66.649 -16.893,118.249 -45.443,154.799c-28.549,36.55 -67.627,54.825 -117.231,54.825l-182.298,-0c-62.006,-0 -111.724,-37.087 -149.156,-111.262c-37.431,-74.175 -54.599,-170.387 -51.503,-288.637c1.971,-75.249 14.426,-148.349 37.366,-219.299c22.94,-70.95 62.423,-158.024 118.451,-261.224l-96.73,0Z" style="fill-rule:nonzero;stroke:#fff;stroke-opacity:0.23;stroke-width:33.33px;"/><path d="M10141.1,6779.45l97.66,0c78.747,0 116.868,47.837 114.363,143.512c-1.717,65.575 -16.85,116.637 -45.4,153.187c-28.55,36.55 -67.627,54.825 -117.232,54.825l-167.416,-0c-45.884,-0 -81.665,-18.813 -107.342,-56.437c-25.677,-37.625 -37.686,-88.15 -36.025,-151.575c0.873,-33.325 11.313,-88.687 31.322,-166.087l417.725,-1602.82l11.371,-43.537c31.676,-120.4 78.826,-180.599 141.452,-180.599c26.043,-0 47.816,15.049 65.319,45.149c17.504,30.1 25.707,66.113 24.609,108.037c-0.844,32.25 -6.452,68.8 -16.822,109.65l-11.371,43.537l-402.213,1543.16Z" style="fill-rule:nonzero;stroke:#fff;stroke-opacity:0.23;stroke-width:33.33px;"/><path d="M10985.5,5874.84c89.908,0 162.556,49.45 217.941,148.349c55.386,98.9 81.081,224.675 77.083,377.324c-3.012,115.025 -21.194,229.243 -54.546,342.655c-33.353,113.412 -75.098,203.981 -125.236,271.705c-33.397,44.075 -67.521,74.444 -102.37,91.106c-34.85,16.663 -83.278,24.994 -145.284,24.994c-101.069,-0 -168.727,-20.963 -202.972,-62.887c-80.499,-98.9 -118.214,-245.099 -113.148,-438.599c5.349,-204.249 52.453,-381.086 141.314,-530.51c88.861,-149.425 191.267,-224.137 307.218,-224.137Zm-31.316,343.461c-45.884,0 -88.766,39.238 -128.644,117.712c-39.879,78.475 -61.056,165.012 -63.534,259.612c-3.265,124.699 35.406,187.049 116.014,187.049c47.125,0 84.06,-25.262 110.805,-75.787c44.331,-82.775 67.891,-177.374 70.677,-283.799c1.605,-61.275 -7.331,-110.725 -26.808,-148.349c-19.477,-37.625 -45.647,-56.438 -78.51,-56.438Z" style="fill-rule:nonzero;stroke:#fff;stroke-opacity:0.23;stroke-width:33.33px;"/><path d="M11907.5,5874.84c89.909,0 162.556,49.45 217.942,148.349c55.386,98.9 81.08,224.675 77.083,377.324c-3.012,115.025 -21.194,229.243 -54.547,342.655c-33.352,113.412 -75.098,203.981 -125.236,271.705c-33.397,44.075 -67.52,74.444 -102.37,91.106c-34.849,16.663 -83.277,24.994 -145.283,24.994c-101.07,-0 -168.727,-20.963 -202.973,-62.887c-80.498,-98.9 -118.214,-245.099 -113.147,-438.599c5.348,-204.249 52.453,-381.086 141.314,-530.51c88.86,-149.425 191.266,-224.137 307.217,-224.137Zm-31.315,343.461c-45.885,0 -88.766,39.238 -128.645,117.712c-39.878,78.475 -61.056,165.012 -63.533,259.612c-3.265,124.699 35.406,187.049 116.014,187.049c47.124,0 84.059,-25.262 110.805,-75.787c44.331,-82.775 67.89,-177.374 70.677,-283.799c1.604,-61.275 -7.332,-110.725 -26.808,-148.349c-19.477,-37.625 -45.647,-56.438 -78.51,-56.438Z" style="fill-rule:nonzero;stroke:#fff;stroke-opacity:0.23;stroke-width:33.33px;"/><path d="M12951.3,6448.89l133.903,391.836c16.715,48.375 24.665,88.15 23.848,119.325c-1.295,49.449 -14.399,94.062 -39.313,133.837c-24.913,39.774 -52.252,59.662 -82.015,59.662c-26.042,-0 -48.041,-24.188 -65.996,-72.562l-10.401,-29.025l-201.129,-559.536l-115.866,446.661c-37.227,142.975 -88.084,214.462 -152.57,214.462c-26.662,-0 -48.766,-14.244 -66.312,-42.731c-17.546,-28.488 -25.784,-63.156 -24.714,-104.006c0.816,-31.175 6.719,-67.187 17.71,-108.037l11.371,-43.538l442.623,-1701.18l11.371,-43.537c31.676,-120.4 78.827,-180.599 141.452,-180.599c26.043,-0 47.971,15.049 65.785,45.149c17.813,30.1 26.171,66.113 25.073,108.037c-0.844,32.25 -6.776,69.338 -17.795,111.263l-11.371,43.537l-263.688,1012.65l216.321,-269.286c44.868,-55.9 82.803,-83.85 113.806,-83.85c26.043,-0 47.365,14.512 63.966,43.537c16.602,29.025 24.34,65.038 23.214,108.037c-1.886,72.025 -26.545,137.6 -73.978,196.725l-22.11,27.412l-143.185,175.762Z" style="fill-rule:nonzero;stroke:#fff;stroke-opacity:0.23;stroke-width:33.33px;"/><path d="M3036.08,5276.42l-357.827,1375.46c-86.854,333.249 -152.312,559.804 -196.374,679.666c-44.063,119.862 -99.491,223.868 -166.285,312.018c-98.191,126.849 -208.362,190.274 -330.514,190.274c-130.832,0 -235.152,-71.218 -312.96,-213.655c-77.809,-142.437 -113.715,-328.143 -107.719,-557.117c7.91,-302.074 79.011,-566.523 213.302,-793.347c72.008,-121.475 160.757,-219.299 266.249,-293.474c105.493,-74.175 208.773,-111.262 309.843,-111.262c48.365,0 87.084,19.081 116.157,57.244c29.074,38.162 42.809,87.88 41.204,149.155c-1.745,66.65 -19.26,119.862 -52.545,159.637c-18.572,22.575 -54.958,38.7 -109.157,48.375c-124.518,19.35 -225.318,68.262 -302.4,146.737c-64.992,66.65 -117.158,152.649 -156.5,257.999c-39.342,105.35 -60.548,216.612 -63.616,333.786c-3.153,120.4 12.648,215.537 47.402,285.412c34.754,69.874 83.444,104.812 146.07,104.812c74.407,-0 140.977,-55.9 199.709,-167.7c58.733,-111.799 124.636,-307.986 197.709,-588.56l357.827,-1375.46l-181.367,-0c-85.568,-0 -126.973,-52.675 -124.214,-158.025c1.858,-70.949 18.506,-126.58 49.944,-166.893c31.439,-40.312 74.13,-60.468 128.076,-60.468l635.25,-0l64.431,25.8c25.395,24.724 37.262,68.799 35.601,132.224c-1.858,70.95 -18.506,126.581 -49.944,166.893c-31.439,40.313 -74.131,60.469 -128.076,60.469l-169.276,-0Z" style="fill:#fff;fill-rule:nonzero;stroke:#fff;stroke-opacity:0.23;stroke-width:33.33px;"/><path d="M3696.46,5927.86c66.711,-61.274 121.148,-91.912 163.312,-91.912c59.526,0 107.603,28.756 144.23,86.269c36.628,57.512 53.774,130.88 51.437,220.105c-1.407,53.75 -10.382,112.337 -26.924,175.762l-108.722,422.473l106.96,0c78.128,0 115.939,47.838 113.434,143.512c-1.717,65.575 -16.851,116.637 -45.4,153.187c-28.55,36.55 -67.627,54.825 -117.232,54.825l-186.948,-0c-39.684,-0 -72.498,-19.619 -98.443,-58.856c-25.945,-39.237 -38.172,-87.343 -36.68,-144.318c1.013,-38.7 9.439,-88.15 25.276,-148.35l95.111,-364.423c11.751,-46.225 17.937,-81.163 18.556,-104.812c1.604,-61.275 -21.156,-91.913 -68.28,-91.913c-63.246,0 -119.02,93.525 -167.322,280.574l-115.781,443.436c-36.551,140.825 -87.069,211.237 -151.556,211.237c-25.422,-0 -46.758,-13.975 -64.008,-41.925c-17.25,-27.95 -25.354,-61.812 -24.312,-101.587c0.788,-30.1 6.367,-65.575 16.738,-106.425l11.371,-43.537l449.894,-1730.21c39.228,-148.35 89.534,-222.524 150.92,-222.524c25.423,-0 46.893,14.781 64.41,44.343c17.518,29.563 25.728,65.306 24.63,107.231c-0.901,34.4 -10.298,85.462 -28.193,153.187l-196.478,754.647Z" style="fill:#fff;fill-rule:nonzero;stroke:#fff;stroke-opacity:0.23;stroke-width:33.33px;"/><path d="M4539.02,6619.62c-2.111,80.625 31.867,120.937 101.934,120.937l276.236,0c78.128,0 115.939,47.838 113.433,143.512c-1.717,65.575 -16.85,116.637 -45.4,153.187c-28.549,36.55 -67.627,54.825 -117.231,54.825l-263.216,-0c-97.969,-0 -171.433,-41.925 -220.392,-125.775c-48.96,-83.849 -71.328,-206.399 -67.106,-367.648c5.433,-207.474 50.579,-386.461 135.437,-536.961c84.859,-150.499 183.093,-225.749 294.704,-225.749c81.228,0 145.525,36.819 192.891,110.456c47.367,73.637 69.474,170.656 66.321,291.055c-3.8,145.125 -40.718,252.624 -110.754,322.499c-38.866,39.775 -95.812,59.662 -170.839,59.662l-186.018,0Zm52.329,-293.474l102.31,0c66.346,0 99.251,-25.262 98.714,-75.787c-0.368,-56.975 -21.015,-85.462 -61.938,-85.462c-57.046,-0 -103.408,53.75 -139.086,161.249Z" style="fill:#fff;fill-rule:nonzero;stroke:#fff;stroke-opacity:0.23;stroke-width:33.33px;"/><path d="M6033.13,5990.75l-46.504,-0c-86.189,-0 -127.946,-51.063 -125.272,-153.187c1.915,-73.1 18.443,-130.075 49.585,-170.925c31.143,-40.85 73.997,-61.275 128.562,-61.275l130.212,0l27.647,-61.274c204.802,-456.874 404.552,-685.31 599.251,-685.31c96.729,-0 174.52,48.375 233.372,145.124c58.853,96.75 86.28,221.449 82.283,374.099c-5.63,214.999 -68.25,380.548 -187.861,496.648c-79.534,77.4 -196.809,116.1 -351.824,116.1l-279.026,-0c-99.651,300.998 -152.234,556.847 -157.752,767.547c-3.096,118.249 12.409,212.849 46.514,283.799c34.106,70.949 80.922,106.424 140.447,106.424c82.468,0 166.511,-83.849 252.13,-251.549c85.619,-167.699 151.268,-377.861 196.947,-630.485l17.415,-96.75c23.924,-132.224 66.579,-198.336 127.965,-198.336c32.863,-0 59.132,20.962 78.806,62.887c19.674,41.925 28.639,96.212 26.893,162.862c-5.517,210.699 -64.118,459.561 -175.804,746.585c-155.593,400.973 -335.7,601.46 -540.319,601.46c-127.112,-0 -229.192,-73.906 -306.239,-221.718c-77.048,-147.812 -112.531,-337.818 -106.451,-570.017c5.742,-219.299 52.083,-473.536 139.023,-762.709Zm415.61,-385.387l181.367,0c153.775,0 232.562,-72.562 236.362,-217.686c1.126,-43 -8.014,-78.744 -27.42,-107.231c-19.406,-28.487 -44.61,-42.731 -75.613,-42.731c-47.745,-0 -99.758,32.787 -156.04,98.362c-56.283,65.575 -109.168,155.337 -158.656,269.286Z" style="fill:#fff;fill-rule:nonzero;stroke:#fff;stroke-opacity:0.23;stroke-width:33.33px;"/><path d="M7441.6,6524.49l229.123,-509.548l17.881,-43.537c38.328,-90.3 79.814,-135.45 124.459,-135.45c29.142,0 52.599,15.856 70.371,47.569c17.771,31.712 26.009,72.293 24.715,121.743c-1.408,53.75 -21.811,122.55 -61.21,206.399l-364.358,772.385c-40.724,87.075 -87.128,130.612 -139.213,130.612c-44.024,-0 -78.051,-26.606 -102.08,-79.819c-24.029,-53.212 -34.833,-126.043 -32.412,-218.492c0.506,-19.35 1.225,-34.938 2.154,-46.763l50.33,-643.385c6.621,-87.075 21.845,-153.456 45.674,-199.143c23.828,-45.687 54.964,-68.531 93.408,-68.531c58.906,0 87.007,51.6 84.305,154.799c-0.394,15.05 -2.31,40.85 -5.747,77.4l-37.4,433.761Z" style="fill:#fff;fill-rule:nonzero;stroke:#fff;stroke-opacity:0.23;stroke-width:33.33px;"/><path d="M8200.26,6619.62c-2.111,80.625 31.866,120.937 101.933,120.937l276.236,0c78.128,0 115.939,47.838 113.434,143.512c-1.717,65.575 -16.851,116.637 -45.401,153.187c-28.549,36.55 -67.626,54.825 -117.231,54.825l-263.215,-0c-97.97,-0 -171.434,-41.925 -220.393,-125.775c-48.959,-83.849 -71.328,-206.399 -67.106,-367.648c5.433,-207.474 50.579,-386.461 135.437,-536.961c84.859,-150.499 183.093,-225.749 294.704,-225.749c81.228,0 145.525,36.819 192.891,110.456c47.367,73.637 69.474,170.656 66.321,291.055c-3.8,145.125 -40.718,252.624 -110.754,322.499c-38.865,39.775 -95.811,59.662 -170.839,59.662l-186.017,0Zm52.329,-293.474l102.309,0c66.347,0 99.251,-25.262 98.714,-75.787c-0.368,-56.975 -21.014,-85.462 -61.938,-85.462c-57.046,-0 -103.407,53.75 -139.085,161.249Z" style="fill:#fff;fill-rule:nonzero;stroke:#fff;stroke-opacity:0.23;stroke-width:33.33px;"/><path d="M9110.67,6211.66l-35.17,135.45c-31.675,120.399 -70.455,180.599 -116.34,180.599c-27.902,0 -50.775,-14.512 -68.616,-43.537c-17.842,-29.025 -26.2,-65.038 -25.074,-108.037c0.647,-24.725 8.566,-66.65 23.755,-125.775l116.881,-449.886c28.265,-108.574 65.65,-162.862 112.155,-162.862c45.884,0 73.111,37.625 81.682,112.875l6.132,49.987c3.045,25.8 8.203,41.925 15.475,48.375c7.271,6.45 25.479,9.675 54.622,9.675l217.64,0c81.228,0 120.547,49.45 117.957,148.35c-3.575,136.524 -56.827,204.786 -159.757,204.786l-10.653,16.125c-102.868,163.4 -155.47,289.712 -157.806,378.936c-2.337,89.225 25.018,133.837 82.063,133.837l117.191,0c78.748,0 116.883,47.3 114.406,141.9c-1.745,66.65 -16.893,118.249 -45.442,154.799c-28.55,36.55 -67.627,54.825 -117.232,54.825l-182.297,-0c-62.006,-0 -111.725,-37.087 -149.157,-111.262c-37.431,-74.175 -54.599,-170.387 -51.502,-288.637c1.97,-75.249 14.425,-148.349 37.365,-219.299c22.94,-70.949 62.424,-158.024 118.451,-261.224l-96.729,0Z" style="fill:#fff;fill-rule:nonzero;stroke:#fff;stroke-opacity:0.23;stroke-width:33.33px;"/><path d="M10024.5,6740.56l97.659,0c78.748,0 116.869,47.838 114.363,143.512c-1.717,65.575 -16.85,116.637 -45.4,153.187c-28.549,36.55 -67.627,54.825 -117.231,54.825l-167.416,-0c-45.885,-0 -81.665,-18.812 -107.343,-56.437c-25.677,-37.625 -37.685,-88.15 -36.025,-151.575c0.873,-33.325 11.313,-88.687 31.322,-166.087l417.726,-1602.82l11.371,-43.537c31.675,-120.4 78.826,-180.599 141.452,-180.599c26.042,-0 47.815,15.05 65.319,45.149c17.503,30.1 25.706,66.113 24.608,108.038c-0.844,32.249 -6.452,68.799 -16.822,109.649l-11.371,43.538l-402.212,1543.16Z" style="fill:#fff;fill-rule:nonzero;stroke:#fff;stroke-opacity:0.23;stroke-width:33.33px;"/><path d="M10868.8,5835.95c89.909,0 162.556,49.45 217.942,148.35c55.386,98.899 81.08,224.674 77.083,377.323c-3.012,115.025 -21.194,229.243 -54.547,342.655c-33.353,113.412 -75.098,203.981 -125.236,271.705c-33.397,44.075 -67.52,74.444 -102.37,91.106c-34.85,16.663 -83.277,24.994 -145.283,24.994c-101.07,-0 -168.728,-20.962 -202.973,-62.887c-80.498,-98.9 -118.214,-245.099 -113.147,-438.599c5.348,-204.249 52.453,-381.086 141.313,-530.51c88.861,-149.425 191.267,-224.137 307.218,-224.137Zm-31.316,343.461c-45.884,0 -88.765,39.238 -128.644,117.712c-39.878,78.475 -61.056,165.012 -63.533,259.612c-3.265,124.699 35.406,187.049 116.013,187.049c47.125,0 84.06,-25.262 110.805,-75.787c44.332,-82.775 67.891,-177.374 70.678,-283.799c1.604,-61.275 -7.332,-110.724 -26.809,-148.349c-19.477,-37.625 -45.646,-56.438 -78.51,-56.438Z" style="fill:#fff;fill-rule:nonzero;stroke:#fff;stroke-opacity:0.23;stroke-width:33.33px;"/><path d="M11790.9,5835.95c89.908,0 162.556,49.45 217.941,148.35c55.386,98.899 81.081,224.674 77.083,377.323c-3.011,115.025 -21.194,229.243 -54.546,342.655c-33.353,113.412 -75.098,203.981 -125.236,271.705c-33.397,44.075 -67.521,74.444 -102.37,91.106c-34.85,16.663 -83.278,24.994 -145.284,24.994c-101.069,-0 -168.727,-20.962 -202.972,-62.887c-80.499,-98.9 -118.214,-245.099 -113.148,-438.599c5.349,-204.249 52.453,-381.086 141.314,-530.51c88.861,-149.425 191.267,-224.137 307.218,-224.137Zm-31.316,343.461c-45.884,0 -88.766,39.238 -128.644,117.712c-39.879,78.475 -61.056,165.012 -63.534,259.612c-3.265,124.699 35.406,187.049 116.014,187.049c47.125,0 84.06,-25.262 110.805,-75.787c44.331,-82.775 67.891,-177.374 70.677,-283.799c1.605,-61.275 -7.331,-110.724 -26.808,-148.349c-19.477,-37.625 -45.647,-56.438 -78.51,-56.438Z" style="fill:#fff;fill-rule:nonzero;stroke:#fff;stroke-opacity:0.23;stroke-width:33.33px;"/><path d="M12834.6,6410l133.904,391.836c16.715,48.375 24.664,88.15 23.848,119.325c-1.295,49.449 -14.4,94.062 -39.313,133.837c-24.914,39.774 -52.252,59.662 -82.015,59.662c-26.043,-0 -48.042,-24.188 -65.997,-72.562l-10.401,-29.025l-201.129,-559.536l-115.866,446.661c-37.227,142.975 -88.083,214.462 -152.569,214.462c-26.663,-0 -48.767,-14.244 -66.313,-42.731c-17.546,-28.488 -25.784,-63.156 -24.714,-104.006c0.816,-31.175 6.72,-67.187 17.71,-108.037l11.371,-43.537l442.624,-1701.18l11.371,-43.537c31.675,-120.4 78.826,-180.599 141.452,-180.599c26.042,-0 47.97,15.05 65.784,45.149c17.814,30.1 26.171,66.113 25.074,108.038c-0.845,32.249 -6.776,69.337 -17.795,111.262l-11.371,43.537l-263.689,1012.65l216.321,-269.286c44.868,-55.9 82.804,-83.85 113.807,-83.85c26.042,0 47.364,14.513 63.966,43.537c16.601,29.025 24.339,65.038 23.213,108.037c-1.886,72.025 -26.545,137.6 -73.978,196.725l-22.109,27.412l-143.186,175.762Z" style="fill:#fff;fill-rule:nonzero;stroke:#fff;stroke-opacity:0.23;stroke-width:33.33px;"/><path d="M2958.3,5276.42l-357.827,1375.46c-86.853,333.249 -152.311,559.804 -196.374,679.666c-44.062,119.862 -99.491,223.868 -166.285,312.018c-98.191,126.849 -208.362,190.274 -330.513,190.274c-130.833,0 -235.153,-71.218 -312.961,-213.655c-77.808,-142.437 -113.714,-328.143 -107.719,-557.117c7.91,-302.074 79.011,-566.523 213.302,-793.347c72.008,-121.475 160.758,-219.299 266.25,-293.474c105.492,-74.175 208.773,-111.262 309.842,-111.262c48.365,0 87.084,19.081 116.158,57.244c29.073,38.162 42.808,87.88 41.203,149.155c-1.745,66.65 -19.26,119.862 -52.544,159.637c-18.573,22.575 -54.959,38.7 -109.157,48.375c-124.519,19.35 -225.319,68.262 -302.401,146.737c-64.991,66.65 -117.158,152.649 -156.5,257.999c-39.342,105.35 -60.547,216.612 -63.616,333.786c-3.152,120.4 12.648,215.537 47.402,285.412c34.754,69.874 83.444,104.812 146.07,104.812c74.407,-0 140.977,-55.9 199.71,-167.7c58.732,-111.799 124.635,-307.986 197.708,-588.56l357.828,-1375.46l-181.368,-0c-85.568,-0 -126.973,-52.675 -124.214,-158.025c1.858,-70.949 18.506,-126.58 49.944,-166.893c31.439,-40.312 74.131,-60.468 128.076,-60.468l635.25,-0l64.431,25.8c25.395,24.724 37.262,68.799 35.601,132.224c-1.857,70.95 -18.506,126.581 -49.944,166.893c-31.439,40.313 -74.13,60.469 -128.075,60.469l-169.277,-0Z" style="fill:#fdf0d5;fill-rule:nonzero;stroke:#669bbc;stroke-width:33.33px;"/><path d="M3618.69,5927.86c66.71,-61.274 121.148,-91.912 163.312,-91.912c59.525,0 107.602,28.756 144.23,86.269c36.627,57.512 53.773,130.88 51.437,220.105c-1.408,53.75 -10.383,112.337 -26.925,175.762l-108.722,422.473l106.961,0c78.127,0 115.938,47.838 113.433,143.512c-1.717,65.575 -16.851,116.637 -45.4,153.187c-28.55,36.55 -67.627,54.825 -117.232,54.825l-186.948,-0c-39.683,-0 -72.498,-19.619 -98.443,-58.856c-25.945,-39.237 -38.172,-87.343 -36.68,-144.318c1.013,-38.7 9.439,-88.15 25.277,-148.35l95.11,-364.423c11.752,-46.225 17.937,-81.163 18.556,-104.812c1.605,-61.275 -21.155,-91.913 -68.28,-91.913c-63.246,0 -119.02,93.525 -167.322,280.574l-115.781,443.436c-36.551,140.825 -87.069,211.237 -151.555,211.237c-25.423,-0 -46.759,-13.975 -64.009,-41.925c-17.25,-27.95 -25.354,-61.812 -24.312,-101.587c0.788,-30.1 6.367,-65.575 16.738,-106.425l11.371,-43.537l449.894,-1730.21c39.228,-148.35 89.535,-222.524 150.921,-222.524c25.422,-0 46.892,14.781 64.41,44.343c17.517,29.563 25.727,65.306 24.629,107.231c-0.9,34.4 -10.298,85.462 -28.193,153.187l-196.477,754.647Z" style="fill:#fdf0d5;fill-rule:nonzero;stroke:#669bbc;stroke-width:33.33px;"/><path d="M4461.24,6619.62c-2.111,80.625 31.866,120.937 101.933,120.937l276.236,0c78.128,0 115.939,47.838 113.434,143.512c-1.717,65.575 -16.851,116.637 -45.401,153.187c-28.549,36.55 -67.626,54.825 -117.231,54.825l-263.215,-0c-97.97,-0 -171.434,-41.925 -220.393,-125.775c-48.959,-83.849 -71.328,-206.399 -67.106,-367.648c5.433,-207.474 50.579,-386.461 135.437,-536.961c84.859,-150.499 183.093,-225.749 294.704,-225.749c81.228,0 145.525,36.819 192.891,110.456c47.367,73.637 69.474,170.656 66.321,291.055c-3.8,145.125 -40.718,252.624 -110.754,322.499c-38.865,39.775 -95.811,59.662 -170.839,59.662l-186.017,0Zm52.329,-293.474l102.309,0c66.347,0 99.251,-25.262 98.714,-75.787c-0.368,-56.975 -21.014,-85.462 -61.938,-85.462c-57.046,-0 -103.407,53.75 -139.085,161.249Z" style="fill:#fdf0d5;fill-rule:nonzero;stroke:#669bbc;stroke-width:33.33px;"/><path d="M5955.36,5990.75l-46.504,-0c-86.188,-0 -127.945,-51.063 -125.271,-153.187c1.914,-73.1 18.442,-130.075 49.585,-170.925c31.142,-40.85 73.996,-61.275 128.561,-61.275l130.213,0l27.647,-61.274c204.801,-456.874 404.551,-685.31 599.25,-685.31c96.729,-0 174.52,48.375 233.372,145.124c58.853,96.75 86.281,221.449 82.283,374.099c-5.629,214.999 -68.25,380.548 -187.861,496.648c-79.534,77.4 -196.809,116.1 -351.823,116.1l-279.027,-0c-99.65,300.998 -152.234,556.847 -157.751,767.547c-3.097,118.249 12.408,212.849 46.514,283.799c34.105,70.949 80.921,106.424 140.446,106.424c82.468,0 166.512,-83.849 252.131,-251.549c85.619,-167.699 151.267,-377.861 196.946,-630.485l17.415,-96.75c23.924,-132.224 66.579,-198.336 127.965,-198.336c32.863,-0 59.132,20.962 78.806,62.887c19.674,41.925 28.639,96.212 26.894,162.862c-5.518,210.699 -64.119,459.561 -175.805,746.585c-155.593,400.973 -335.7,601.46 -540.319,601.46c-127.112,-0 -229.192,-73.906 -306.239,-221.718c-77.047,-147.812 -112.531,-337.818 -106.451,-570.017c5.743,-219.299 52.084,-473.536 139.023,-762.709Zm415.61,-385.387l181.368,0c153.774,0 232.562,-72.562 236.362,-217.686c1.126,-43 -8.014,-78.744 -27.42,-107.231c-19.406,-28.487 -44.611,-42.731 -75.614,-42.731c-47.744,-0 -99.758,32.787 -156.04,98.362c-56.282,65.575 -109.168,155.337 -158.656,269.286Z" style="fill:#fdf0d5;fill-rule:nonzero;stroke:#669bbc;stroke-width:33.33px;"/><path d="M7363.82,6524.49l229.123,-509.548l17.881,-43.537c38.328,-90.3 79.814,-135.45 124.459,-135.45c29.143,0 52.6,15.856 70.371,47.569c17.771,31.712 26.01,72.293 24.715,121.743c-1.408,53.75 -21.811,122.55 -61.21,206.399l-364.358,772.385c-40.724,87.075 -87.128,130.612 -139.213,130.612c-44.024,-0 -78.051,-26.606 -102.08,-79.819c-24.029,-53.212 -34.833,-126.043 -32.412,-218.492c0.507,-19.35 1.225,-34.938 2.154,-46.763l50.331,-643.385c6.62,-87.075 21.845,-153.456 45.673,-199.143c23.829,-45.687 54.965,-68.531 93.408,-68.531c58.906,0 87.008,51.6 84.305,154.799c-0.394,15.05 -2.309,40.85 -5.747,77.4l-37.4,433.761Z" style="fill:#fdf0d5;fill-rule:nonzero;stroke:#669bbc;stroke-width:33.33px;"/><path d="M8122.48,6619.62c-2.111,80.625 31.867,120.937 101.933,120.937l276.237,0c78.127,0 115.938,47.838 113.433,143.512c-1.717,65.575 -16.851,116.637 -45.4,153.187c-28.55,36.55 -67.627,54.825 -117.232,54.825l-263.215,-0c-97.969,-0 -171.434,-41.925 -220.393,-125.775c-48.959,-83.849 -71.328,-206.399 -67.105,-367.648c5.432,-207.474 50.578,-386.461 135.437,-536.961c84.858,-150.499 183.093,-225.749 294.703,-225.749c81.228,0 145.525,36.819 192.892,110.456c47.366,73.637 69.473,170.656 66.32,291.055c-3.8,145.125 -40.718,252.624 -110.754,322.499c-38.865,39.775 -95.811,59.662 -170.838,59.662l-186.018,0Zm52.329,-293.474l102.31,0c66.346,0 99.25,-25.262 98.713,-75.787c-0.368,-56.975 -21.014,-85.462 -61.938,-85.462c-57.045,-0 -103.407,53.75 -139.085,161.249Z" style="fill:#fdf0d5;fill-rule:nonzero;stroke:#669bbc;stroke-width:33.33px;"/><path d="M9032.89,6211.66l-35.17,135.45c-31.675,120.399 -70.455,180.599 -116.339,180.599c-27.903,0 -50.775,-14.512 -68.617,-43.537c-17.842,-29.025 -26.2,-65.038 -25.074,-108.037c0.648,-24.725 8.566,-66.65 23.756,-125.775l116.88,-449.886c28.265,-108.574 65.65,-162.862 112.155,-162.862c45.884,0 73.112,37.625 81.682,112.875l6.132,49.987c3.045,25.8 8.203,41.925 15.475,48.375c7.272,6.45 25.479,9.675 54.622,9.675l217.641,0c81.227,0 120.546,49.45 117.957,148.35c-3.575,136.524 -56.828,204.786 -159.757,204.786l-10.654,16.125c-102.868,163.4 -155.47,289.712 -157.806,378.936c-2.337,89.225 25.018,133.837 82.063,133.837l117.192,0c78.747,0 116.882,47.3 114.405,141.9c-1.745,66.65 -16.892,118.249 -45.442,154.799c-28.55,36.55 -67.627,54.825 -117.232,54.825l-182.297,-0c-62.006,-0 -111.725,-37.087 -149.156,-111.262c-37.432,-74.175 -54.599,-170.387 -51.503,-288.637c1.97,-75.249 14.426,-148.349 37.365,-219.299c22.94,-70.949 62.424,-158.024 118.451,-261.224l-96.729,0Z" style="fill:#fdf0d5;fill-rule:nonzero;stroke:#669bbc;stroke-width:33.33px;"/><path d="M9946.67,6740.56l97.659,0c78.748,0 116.869,47.838 114.364,143.512c-1.717,65.575 -16.851,116.637 -45.4,153.187c-28.55,36.55 -67.627,54.825 -117.232,54.825l-167.416,-0c-45.884,-0 -81.665,-18.812 -107.343,-56.437c-25.677,-37.625 -37.685,-88.15 -36.024,-151.575c0.872,-33.325 11.313,-88.687 31.321,-166.087l417.726,-1602.82l11.371,-43.537c31.675,-120.4 78.826,-180.599 141.452,-180.599c26.042,-0 47.815,15.05 65.319,45.149c17.504,30.1 25.706,66.113 24.609,108.038c-0.845,32.249 -6.452,68.799 -16.823,109.649l-11.371,43.538l-402.212,1543.16Z" style="fill:#fdf0d5;fill-rule:nonzero;stroke:#669bbc;stroke-width:33.33px;"/><path d="M10791,5835.95c89.909,0 162.556,49.45 217.942,148.35c55.386,98.899 81.08,224.674 77.083,377.323c-3.012,115.025 -21.194,229.243 -54.547,342.655c-33.352,113.412 -75.098,203.981 -125.236,271.705c-33.397,44.075 -67.52,74.444 -102.37,91.106c-34.849,16.663 -83.277,24.994 -145.283,24.994c-101.07,-0 -168.727,-20.962 -202.973,-62.887c-80.498,-98.9 -118.214,-245.099 -113.147,-438.599c5.348,-204.249 52.453,-381.086 141.314,-530.51c88.86,-149.425 191.266,-224.137 307.217,-224.137Zm-31.315,343.461c-45.885,0 -88.766,39.238 -128.645,117.712c-39.878,78.475 -61.056,165.012 -63.533,259.612c-3.265,124.699 35.406,187.049 116.014,187.049c47.124,0 84.059,-25.262 110.804,-75.787c44.332,-82.775 67.891,-177.374 70.678,-283.799c1.604,-61.275 -7.332,-110.724 -26.809,-148.349c-19.476,-37.625 -45.646,-56.438 -78.509,-56.438Z" style="fill:#fdf0d5;fill-rule:nonzero;stroke:#669bbc;stroke-width:33.33px;"/><path d="M11713.1,5835.95c89.909,0 162.556,49.45 217.942,148.35c55.385,98.899 81.08,224.674 77.083,377.323c-3.012,115.025 -21.195,229.243 -54.547,342.655c-33.353,113.412 -75.098,203.981 -125.236,271.705c-33.397,44.075 -67.521,74.444 -102.37,91.106c-34.85,16.663 -83.277,24.994 -145.283,24.994c-101.07,-0 -168.728,-20.962 -202.973,-62.887c-80.498,-98.9 -118.214,-245.099 -113.147,-438.599c5.348,-204.249 52.452,-381.086 141.313,-530.51c88.861,-149.425 191.267,-224.137 307.218,-224.137Zm-31.316,343.461c-45.884,0 -88.765,39.238 -128.644,117.712c-39.878,78.475 -61.056,165.012 -63.533,259.612c-3.266,124.699 35.406,187.049 116.013,187.049c47.125,0 84.06,-25.262 110.805,-75.787c44.332,-82.775 67.891,-177.374 70.678,-283.799c1.604,-61.275 -7.332,-110.724 -26.809,-148.349c-19.477,-37.625 -45.647,-56.438 -78.51,-56.438Z" style="fill:#fdf0d5;fill-rule:nonzero;stroke:#669bbc;stroke-width:33.33px;"/><path d="M12756.8,6410l133.904,391.836c16.715,48.375 24.664,88.15 23.848,119.325c-1.295,49.449 -14.399,94.062 -39.313,133.837c-24.914,39.774 -52.252,59.662 -82.015,59.662c-26.043,-0 -48.041,-24.188 -65.996,-72.562l-10.402,-29.025l-201.129,-559.536l-115.865,446.661c-37.227,142.975 -88.084,214.462 -152.57,214.462c-26.663,-0 -48.767,-14.244 -66.313,-42.731c-17.545,-28.488 -25.784,-63.156 -24.714,-104.006c0.816,-31.175 6.72,-67.187 17.711,-108.037l11.371,-43.537l442.623,-1701.18l11.371,-43.537c31.675,-120.4 78.826,-180.599 141.452,-180.599c26.043,-0 47.971,15.05 65.784,45.149c17.814,30.1 26.172,66.113 25.074,108.038c-0.845,32.249 -6.776,69.337 -17.795,111.262l-11.371,43.537l-263.689,1012.65l216.321,-269.286c44.868,-55.9 82.804,-83.85 113.807,-83.85c26.042,0 47.364,14.513 63.966,43.537c16.602,29.025 24.339,65.038 23.213,108.037c-1.886,72.025 -26.545,137.6 -73.977,196.725l-22.11,27.412l-143.186,175.762Z" style="fill:#fdf0d5;fill-rule:nonzero;stroke:#669bbc;stroke-width:33.33px;"/><path d="M5355.53,9435.76l0,-1101.33l181.802,-0l-0,433.469l358.344,-0l0,-433.469l181.802,-0l-0,1101.33l-181.802,0l0,-481.548l-358.344,-0l-0,481.548l-181.802,0Z" style="fill-rule:nonzero;stroke:#000;stroke-width:33.33px;"/><path d="M6182.32,8891.86c-0,-131.217 19.407,-239.271 58.221,-324.162c38.814,-84.891 89.524,-148.121 152.127,-189.69c62.604,-41.569 138.48,-62.353 227.628,-62.353c129.214,-0 234.514,49.332 315.899,147.995c81.385,98.664 122.077,239.147 122.077,421.449c0,184.306 -43.071,328.295 -129.214,431.967c-75.625,91.652 -178.296,137.478 -308.011,137.478c-130.717,-0 -233.888,-45.326 -309.513,-135.976c-86.143,-103.672 -129.214,-245.908 -129.214,-426.708Zm187.811,-7.512c0,126.71 24.075,221.743 72.225,285.098c48.15,63.355 107.839,95.032 179.067,95.032c71.728,0 131.167,-31.427 178.315,-94.281c47.149,-62.854 70.723,-159.389 70.723,-289.605c-0,-127.712 -22.948,-222.119 -68.845,-283.22c-45.896,-61.101 -105.961,-91.652 -180.193,-91.652c-74.233,0 -134.673,30.801 -181.32,92.403c-46.648,61.602 -69.972,157.011 -69.972,286.225Z" style="fill-rule:nonzero;stroke:#000;stroke-width:33.33px;"/><path d="M7358.44,9435.76l0,-915.017l-268.195,-0l0,-186.309l717.44,-0l0,186.309l-267.443,-0l-0,915.017l-181.802,0Z" style="fill-rule:nonzero;stroke:#000;stroke-width:33.33px;"/><path d="M7880.22,9435.76l0,-1101.33l670.112,-0l-0,186.309l-488.31,-0l-0,244.155l453.752,-0l0,185.558l-453.752,-0l-0,298.995l504.837,0l0,186.309l-686.639,0Z" style="fill-rule:nonzero;stroke:#000;stroke-width:33.33px;"/><path d="M8679.97,9435.76l-0,-1092.31l181.801,-0l0,906.002l453.753,0l-0,186.309l-635.554,0Z" style="fill-rule:nonzero;stroke:#000;stroke-width:33.33px;"/><path d="M5313.01,9382.99l0,-1101.33l181.802,-0l-0,433.468l358.344,0l-0,-433.468l181.801,-0l0,1101.33l-181.801,-0l-0,-481.549l-358.344,0l-0,481.549l-181.802,-0Z" style="fill:#fff;fill-rule:nonzero;stroke:#fff;stroke-width:33.33px;"/><path d="M6139.8,8839.09c0,-131.218 19.407,-239.272 58.222,-324.163c38.814,-84.89 89.523,-148.12 152.127,-189.689c62.604,-41.569 138.48,-62.354 227.628,-62.354c129.214,0 234.514,49.332 315.898,147.996c81.385,98.663 122.078,239.146 122.078,421.449c-0,184.305 -43.071,328.294 -129.214,431.966c-75.626,91.652 -178.296,137.478 -308.011,137.478c-130.717,0 -233.888,-45.325 -309.513,-135.975c-86.143,-103.672 -129.215,-245.908 -129.215,-426.708Zm187.812,-7.513c-0,126.711 24.075,221.743 72.225,285.098c48.15,63.355 107.839,95.033 179.066,95.033c71.729,-0 131.167,-31.427 178.316,-94.281c47.148,-62.855 70.722,-159.39 70.722,-289.606c0,-127.712 -22.948,-222.118 -68.844,-283.219c-45.897,-61.102 -105.961,-91.652 -180.194,-91.652c-74.232,-0 -134.672,30.801 -181.32,92.403c-46.647,61.602 -69.971,157.01 -69.971,286.224Z" style="fill:#fff;fill-rule:nonzero;stroke:#fff;stroke-width:33.33px;"/><path d="M7315.93,9382.99l-0,-915.018l-268.195,0l-0,-186.308l717.44,-0l-0,186.308l-267.444,0l0,915.018l-181.801,-0Z" style="fill:#fff;fill-rule:nonzero;stroke:#fff;stroke-width:33.33px;"/><path d="M7837.71,9382.99l0,-1101.33l670.111,-0l0,186.308l-488.309,0l-0,244.155l453.752,0l0,185.558l-453.752,0l-0,298.996l504.837,-0l-0,186.309l-686.639,-0Z" style="fill:#fff;fill-rule:nonzero;stroke:#fff;stroke-width:33.33px;"/><path d="M8637.46,9382.99l0,-1092.31l181.802,0l-0,906.003l453.752,-0l0,186.309l-635.554,-0Z" style="fill:#fff;fill-rule:nonzero;stroke:#fff;stroke-width:33.33px;"/><path d="M5284.99,9364l-0,-1101.33l181.801,-0l0,433.469l358.344,-0l0,-433.469l181.802,-0l-0,1101.33l-181.802,0l0,-481.548l-358.344,-0l0,481.548l-181.801,0Z" style="fill:#fdf0d5;fill-rule:nonzero;stroke:#669bbc;stroke-width:33.33px;"/><path d="M6111.78,8820.1c-0,-131.217 19.407,-239.272 58.221,-324.162c38.815,-84.891 89.524,-148.121 152.128,-189.69c62.603,-41.569 138.479,-62.353 227.627,-62.353c129.214,-0 234.514,49.331 315.899,147.995c81.385,98.664 122.077,239.147 122.077,421.449c0,184.306 -43.071,328.294 -129.214,431.966c-75.625,91.652 -178.296,137.478 -308.011,137.478c-130.716,0 -233.888,-45.325 -309.513,-135.975c-86.143,-103.672 -129.214,-245.908 -129.214,-426.708Zm187.811,-7.512c0,126.71 24.075,221.742 72.225,285.097c48.151,63.356 107.839,95.033 179.067,95.033c71.728,0 131.167,-31.427 178.315,-94.281c47.149,-62.855 70.723,-159.39 70.723,-289.606c-0,-127.711 -22.948,-222.118 -68.845,-283.219c-45.896,-61.102 -105.961,-91.652 -180.193,-91.652c-74.233,-0 -134.673,30.801 -181.32,92.403c-46.648,61.602 -69.972,157.01 -69.972,286.225Z" style="fill:#fdf0d5;fill-rule:nonzero;stroke:#669bbc;stroke-width:33.33px;"/><path d="M7287.9,9364l0,-915.017l-268.195,-0l0,-186.309l717.44,-0l0,186.309l-267.443,-0l-0,915.017l-181.802,0Z" style="fill:#fdf0d5;fill-rule:nonzero;stroke:#669bbc;stroke-width:33.33px;"/><path d="M7809.69,9364l-0,-1101.33l670.111,-0l-0,186.309l-488.31,-0l0,244.155l453.753,-0l-0,185.557l-453.753,0l0,298.996l504.837,0l0,186.309l-686.638,0Z" style="fill:#fdf0d5;fill-rule:nonzero;stroke:#669bbc;stroke-width:33.33px;"/><path d="M8609.44,9364l-0,-1092.31l181.801,-0l0,906.002l453.753,0l-0,186.309l-635.554,0Z" style="fill:#fdf0d5;fill-rule:nonzero;stroke:#669bbc;stroke-width:33.33px;"/></g></svg>