<?xml version="1.0" encoding="utf-8"?>
<!-- Generator: Adobe Illustrator 24.0.3, SVG Export Plug-In . SVG Version: 6.00 Build 0)  -->
<svg version="1.1" id="Layer_1" xmlns="http://www.w3.org/2000/svg" xmlns:xlink="http://www.w3.org/1999/xlink" x="0px" y="0px"
	 viewBox="0 0 81 81" style="enable-background:new 0 0 81 81;" xml:space="preserve">
<style type="text/css">
	.st0{display:none;}
	.st1{display:inline;}
	.st2{fill:#D0BD71;}
	.st3{display:none;fill:none;stroke:#D0BD71;stroke-width:15;stroke-linecap:round;stroke-linejoin:round;stroke-miterlimit:10;}
	.st4{display:inline;fill:none;stroke:#D0BD71;stroke-width:15;stroke-linecap:round;stroke-linejoin:round;stroke-miterlimit:10;}
	.st5{display:none;fill:#D0BD71;}
	.st6{display:inline;fill:#D0BD71;}
</style>
<g class="st0">
	<g class="st1">
		<path class="st2" d="M34.4-122c-3.1-3.1-4.6-4.6-4.6-8.2s1.5-5.1,4.6-8.2c3.6-3.1,8.2-7.2,8.2-15.4c0-3.1-2-5.1-5.1-5.1
			s-5.1,2-5.1,5.1c0,3.6-1.5,5.1-4.6,8.2c-3.6,3.1-8.2,7.2-8.2,15.4s4.6,12.3,8.2,15.4c3.1,3.1,4.6,4.6,4.6,8.2
			c0.5,3.1-1,4.6-4.6,7.7s-8.2,7.2-8.2,15.4c0,3.1,2,5.1,5.1,5.1s5.1-2,5.1-5.1c0-3.6,1.5-5.1,4.6-7.7c3.6-3.1,8.2-7.2,8.2-15.4
			S38-118.9,34.4-122z"/>
	</g>
</g>
<g class="st0">
	<g class="st1">
		<path class="st2" d="M70.7-122c-3.1-3.1-4.6-4.6-4.6-8.2s1.5-5.1,4.6-8.2c3.6-3.1,8.2-7.2,8.2-15.4c0-3.1-2-5.1-5.1-5.1
			s-5.1,2-5.1,5.1c0,3.6-1.5,5.1-4.6,8.2c-3.6,3.1-8.2,7.2-8.2,15.4s4.6,12.3,8.2,15.4c3.1,3.1,4.6,4.6,4.6,8.2
			c0,3.1-1.5,4.6-4.6,7.7c-3.6,3.1-8.2,7.2-8.2,15.4c0,3.1,2,5.1,5.1,5.1c3.1,0,5.1-2,5.1-5.1c0-3.6,1.5-5.1,4.6-7.7
			c3.6-3.1,8.2-7.2,8.2-15.4S74.3-118.9,70.7-122z"/>
	</g>
</g>
<g class="st0">
	<g class="st1">
		<path class="st2" d="M183.9,130.5c-13.8-49.2-54.8-87-105-96.3c-2.6-0.5-5.6,1.5-6.1,4.1s1.5,5.6,4.1,6.1
			c46.1,8.2,84,43,96.8,88.6c0.5,2,2.6,3.6,5.1,3.6c0.5,0,1,0,1.5,0C182.9,136.1,184.4,133,183.9,130.5z"/>
	</g>
</g>
<polygon class="st3" points="254,-96.9 -109.2,-96.1 71.9,166.8 "/>
<path class="st3" d="M-29.6,345.5h203.9H-29.6z"/>
<path class="st3" d="M72.4,160.9v181.2V160.9z"/>
<line class="st3" x1="192" y1="-137.4" x2="110.4" y2="1.5"/>
<line class="st3" x1="86.5" y1="42.1" x2="73.2" y2="64.9"/>
<circle class="st3" cx="98.3" cy="22.3" r="21.9"/>
<g class="st0">
	<g class="st1">
		<path class="st2" d="M101,28.2C99,14,86.6,3.3,72.3,3.3c-9.2,0-18,4.5-23.4,11.9c-1.1,1.5-0.8,3.7,0.7,4.8
			c1.5,1.1,3.7,0.8,4.8-0.7c4.2-5.7,10.9-9.1,17.9-9.1c11,0,20.4,8.2,22,19c0.2,1.7,1.7,2.9,3.4,2.9c0.2,0,0.3,0,0.5,0
			C100,31.8,101.3,30.1,101,28.2z"/>
	</g>
</g>
<g class="st0">
	<g class="st1">
		<path class="st2" d="M150.3,66.4l-10.2-17.1c-0.6-1-1.7-1.7-2.9-1.7h-9.8c-1.9,0-3.4,1.5-3.4,3.4s1.5,3.4,3.4,3.4h7.9l6.1,10.2
			H3.2l6.1-10.2h3.6c1.9,0,3.4-1.5,3.4-3.4s-1.5-3.4-3.4-3.4H7.4c-1.2,0-2.3,0.6-2.9,1.7L-5.7,66.4c-0.6,1.1-0.6,2.4,0,3.4
			s1.7,1.7,3,1.7h150.2c1.2,0,2.4-0.7,3-1.7S150.9,67.5,150.3,66.4z"/>
	</g>
</g>
<g class="st0">
	<g class="st1">
		<path class="st2" d="M133.3,34.9c-0.5-0.8-1.2-1.3-2.1-1.5L84.6,22.5c-0.9-0.2-1.8-0.1-2.6,0.4c-0.8,0.5-1.3,1.2-1.5,2.1L77,40
			c-0.4,1.8,0.7,3.7,2.5,4.1c1.8,0.4,3.7-0.7,4.1-2.5l2.7-11.7l39.9,9.3L119.9,66c-0.4,1.8,0.7,3.7,2.5,4.1c0.3,0.1,0.5,0.1,0.8,0.1
			c1.6,0,3-1.1,3.3-2.6l7-30.1C133.9,36.6,133.8,35.7,133.3,34.9z"/>
	</g>
</g>
<g class="st0">
	<g class="st1">
		<path class="st2" d="M74.1,43L71,16.7c-0.1-0.9-0.6-1.7-1.3-2.3c-0.7-0.6-1.6-0.8-2.5-0.7l-57.1,6.7c-1.9,0.2-3.2,1.9-3,3.8
			l5.2,43.9c0.2,1.7,1.7,3,3.4,3c0.1,0,0.3,0,0.4,0c1.9-0.2,3.2-1.9,3-3.8l-4.8-40.5l50.3-5.9l2.7,22.9c0.2,1.9,1.9,3.2,3.8,3
			S74.3,44.9,74.1,43z"/>
	</g>
</g>
<g class="st0">
	<g class="st1">
		<path class="st2" d="M101.1,66.9l-6.8-28.2c-0.2-0.9-0.8-1.6-1.5-2.1c-0.8-0.5-1.7-0.6-2.6-0.4l-55,13.2c-1.8,0.4-3,2.3-2.5,4.1
			l3.4,14.1c0.4,1.8,2.3,3,4.1,2.5c1.8-0.4,3-2.3,2.5-4.1l-2.6-10.8l48.3-11.6l6,24.9c0.4,1.6,1.8,2.6,3.3,2.6c0.3,0,0.5,0,0.8-0.1
			C100.4,70.5,101.5,68.7,101.1,66.9z"/>
	</g>
</g>
<g class="st0">
	<g class="st1">
		<path class="st2" d="M150.8,68c-0.1-1.8-1.6-3.2-3.4-3.2H-2.8c-1.8,0-3.3,1.4-3.4,3.2L-13,201.1c0,0.9,0.3,1.8,0.9,2.5
			s1.5,1.1,2.5,1.1h163.8c0.9,0,1.8-0.4,2.5-1.1c0.6-0.7,1-1.6,0.9-2.5L150.8,68z M-6,197.9L0.5,71.6h143.7l6.5,126.3H-6z"/>
	</g>
</g>
<g class="st0">
	<g class="st1">
		<path class="st2" d="M97.9,78.4c-5.6,0-10.2,4.6-10.2,10.2s4.6,10.2,10.2,10.2c5.6,0,10.2-4.6,10.2-10.2S103.5,78.4,97.9,78.4z
			 M97.9,92c-1.9,0-3.4-1.5-3.4-3.4s1.5-3.4,3.4-3.4c1.9,0,3.4,1.5,3.4,3.4S99.8,92,97.9,92z"/>
	</g>
</g>
<g class="st0">
	<g class="st1">
		<path class="st2" d="M46.7,78.4c-5.6,0-10.2,4.6-10.2,10.2s4.6,10.2,10.2,10.2s10.2-4.6,10.2-10.2C56.9,83,52.3,78.4,46.7,78.4z
			 M46.7,92c-1.9,0-3.4-1.5-3.4-3.4s1.5-3.4,3.4-3.4s3.4,1.5,3.4,3.4S48.6,92,46.7,92z"/>
	</g>
</g>
<g class="st0">
	<g class="st1">
		<path class="st2" d="M97.9,88.6h-0.3c-1.9,0-3.4,1.5-3.4,3.4c0,0.5,0.1,0.9,0.3,1.3v17.5c0,12.2-10,22.2-22.2,22.2
			s-22.2-10-22.2-22.2V92c0-1.9-1.5-3.4-3.4-3.4s-3.4,1.5-3.4,3.4v18.8c0,16,13,29,29,29s29-13,29-29V92
			C101.3,90.2,99.8,88.6,97.9,88.6z"/>
	</g>
</g>
<g class="st0">
	<g class="st1">
		<path class="st2" d="M238.2,192.4H231v-13.8C231,78.8,152.2-3.7,53.8-8.8c9.2-4.1,15.4-13.3,15.4-23.6c0-14.3-11.8-26.1-26.1-26.1
			S17-46.7,17-32.4c0,10.8,6.1,19.5,15.4,23.6c-98.8,5.6-177.2,87.6-177.2,187.4v13.8h-7.2c-3.1,0-5.1,2-5.1,5.1v36.4
			c0,3.1,2,5.1,5.1,5.1h390.1c3.1,0,5.1-2,5.1-5.1v-36.4C243.3,194.5,240.7,192.4,238.2,192.4z M27.2-32.9c0-8.7,7.2-15.9,15.9-15.9
			S59-41.6,59-32.9S51.8-17,43.1-17S27.2-24.2,27.2-32.9z M-134.6,178.6c0-98.3,79.4-177.7,177.7-177.7
			c97.8,0,177.7,79.9,177.7,177.7v13.8h-355.4V178.6L-134.6,178.6z M-147.4,228.8v-26.1h379.9v26.1H-147.4z"/>
	</g>
</g>
<g class="st0">
	<g class="st1">
		<path class="st2" d="M185.8,63.4c-11.2,0-22,2.4-32,6.4l-13.6-26.4v-42c0-2.4-1.6-4.8-4-5.6l-32-12c-3.2-1.2-6.4,0.4-7.6,3.6
			C95.4-9.4,97-6.2,100.2-5l28.4,10.4v34H11.4V27.8h14.4c3.2,0,6-2.8,6-6s-2.8-6-6-6h-37.2c-3.2,0-6,2.8-6,6s2.8,6,6,6h10.8v16.4
			l-11.6,25.2C-21,65.8-31,63.8-41,63.8c-44.4,0-80.8,36-80.8,80.8s36,80.8,80.8,80.8c42.4,0,77.2-33.2,80.4-74.8h26
			c2,0,3.6-0.8,4.8-2.4L133,57.4l10,18.8c-22.8,13.6-38,39.2-38,68c0,44.4,36,80.8,80.8,80.8s80.8-36,80.8-80.8
			S230.6,63.4,185.8,63.4z M-41,213c-38,0-68.8-30.8-68.8-68.8S-79,75.4-41,75.4c8.4,0,16.4,1.6,23.6,4.4l-29.2,62c0,0,0,0,0,0.4
			c-0.4,0.8-0.4,1.2-0.4,2c0,0,0,0,0,0.4c0,0.8,0,1.2,0.4,2v0.4c0,0.4,0,0.4,0.4,0.8c0,0.4,0.4,0.4,0.8,0.8c0,0,0,0,0,0.4
			c0.4,0.4,1.2,0.8,1.6,1.2h0.4c0.8,0.4,1.2,0.4,2,0.4H27C24.2,185.4-5,213-41,213z M-31.8,138.2L-6.6,85c18.8,10.8,32,30.4,34,53.2
			H-31.8z M62.2,138.2H39C37,110.6,21,87-1.8,73.8L9,51h113.2L62.2,138.2z M185.4,213c-38,0-68.8-30.8-68.8-68.8
			c0-24.4,12.8-45.6,32-58l31.6,60.8c1.2,2,3.2,3.2,5.2,3.2c0.8,0,2-0.4,2.8-0.8c2.8-1.6,4-5.2,2.4-8L159,80.6
			c8.4-3.2,17.2-5.2,26.4-5.2c38,0,68.8,30.8,68.8,68.8S223.4,213,185.4,213z"/>
	</g>
</g>
<g id="Layer_2_1_" class="st0">
	<circle class="st4" cx="73.6" cy="100.8" r="18.4"/>
	<circle class="st4" cx="73.6" cy="100.8" r="67"/>
	<circle class="st4" cx="73.6" cy="100.8" r="91.2"/>
	<line class="st4" x1="87.2" y1="87.2" x2="151.8" y2="22.6"/>
	<line class="st4" x1="-4.5" y1="178.9" x2="60.1" y2="114.3"/>
	<line class="st4" x1="92" y1="100.8" x2="184.2" y2="100.8"/>
	<line class="st4" x1="-36.9" y1="100.8" x2="55.2" y2="100.8"/>
	<line class="st4" x1="86.7" y1="113.9" x2="151.8" y2="178.9"/>
	<line class="st4" x1="-4.5" y1="22.6" x2="60.2" y2="87.4"/>
	<line class="st4" x1="73.6" y1="120" x2="73.6" y2="211.3"/>
	<line class="st4" x1="73.6" y1="-9.8" x2="73.6" y2="81.7"/>
</g>
<path class="st5" d="M118.7,124.8L118.7,124.8L75.1,94.9c-0.5-0.5-1.1-0.8-1.8-1c0.1-2.7-0.4-4.4-1.4-5.3C71.2,88,70.5,88,70.2,88
	c-2.6,0-4.6-2.1-4.6-4.7c0-2.6,2.1-4.7,4.7-4.7s4.7,2.1,4.7,4.7c0,0.5,0.4,1,1,1c0.5,0,1-0.4,1-1c0-3.7-3-6.7-6.7-6.7
	c-3.7,0-6.7,3-6.7,6.7c0,3.7,3,6.7,6.7,6.7h0.1c0,0,0.1,0,0.2,0.2c0.3,0.3,0.8,1.2,0.7,3.9c-0.6,0.2-1.2,0.5-1.7,0.9l-43.5,29.7
	l-0.1,0.1c-1.1,1.1-1.5,2.8-0.9,4.3c0.6,1.4,2,2.4,3.6,2.4h87.2c1.6,0,3-1,3.6-2.4C120.2,127.6,119.9,125.9,118.7,124.8z
	 M117.8,128.3c-0.3,0.7-1,1.2-1.8,1.2H28.7c-0.8,0-1.5-0.5-1.8-1.2c-0.3-0.7-0.1-1.5,0.4-2.1l43.5-29.7l0.1-0.1
	c0.1-0.1,0.2-0.2,0.3-0.3c0.1,0.3,0.4,0.5,0.8,0.6h0.1c0.4,0,0.8-0.3,0.9-0.7c0.2,0.1,0.5,0.2,0.6,0.4l0.1,0.1l43.6,29.8
	C117.9,126.8,118.1,127.6,117.8,128.3z"/>
<g class="st0">
	<path class="st6" d="M356.3,73.1L356.3,73.1c-0.4-0.6-0.6-1.1-0.7-1.5L329,27.2l7.9-16c0.8-1.6,0.9-3.4,0.4-5
		c-0.6-1.7-1.7-3-3.3-3.8c-0.7-0.3-1.3-0.5-2-0.7l-72.6-12.1c-56.8-9.3-114.3-9.3-171.1,0S-23.1,17.3-74,44.2l-28.7,15.3l-43.5,9.7
		c-28.5,6.4-52.3,25-65.4,51.1c-0.5,0.9-0.7,1.9-0.7,3v67.1c0,3.6,3,6.6,6.6,6.6h47.9l0.9,1.5c7.2,12.6,18.9,21.6,32.8,25.4
		c14,3.8,28.6,1.9,41.2-5.3c8.3-4.8,15.3-11.8,20.1-20.1l0.9-1.5h268.4l0.9,1.5c7.2,12.6,18.9,21.6,32.9,25.4s28.6,1.9,41.2-5.3
		c8.5-4.9,15.5-11.9,20.2-20.3l0.7-1.2l1.4-0.2c0.7-0.1,1.4-0.4,2.2-0.8l47.8-28.7c2-1.2,3.2-3.3,3.2-5.6V75.5
		C356.8,74.8,356.6,74.1,356.3,73.1z M145-3.3l2.5-0.1c36.3-2,73.3,0.1,109.9,6l10.8,1.7L213.4,59h-77.3L145-3.3z M-63.3,53.5
		C-3.6,22.6,60.7,4,127.7-2l3.8-0.3l-8.8,61.5H-74.2L-63.3,53.5z M-72,187.7L-72,187.7c-4.4,10.1-12.5,17.8-22.8,21.8
		c-4.9,1.9-9.9,2.8-15,2.8c-5.6,0-11.3-1.2-16.6-3.5c-10.1-4.4-17.8-12.5-21.8-22.8s-3.8-21.5,0.7-31.5
		c4.4-10.1,12.5-17.8,22.8-21.8s21.5-3.8,31.5,0.7c15,6.6,24.7,21.5,24.6,37.9C-68.5,176.9-69.7,182.5-72,187.7z M-56.1,183.7v-3
		c0-0.4,0-1,0.2-1.7c0.4-2.4,0.6-5.1,0.6-7.9c0-30-24.5-54.5-54.5-54.5c-30.1,0-54.5,24.5-54.5,54.5c0,2.9,0.3,5.8,0.7,8.2v0.4v0.2
		l1.3,3.8H-199v-44.3h19.2v-13.2h-20l2.6-4.5c11.6-20.2,31.3-34.7,54-39.7l43.7-9.7h220.3l-15.9,111.4L-56.1,183.7L-56.1,183.7z
		 M292.3,187.7L292.3,187.7c-6.8,15.4-22,24.6-37.8,24.6c-5.5,0-11.2-1.1-16.5-3.5c-10.1-4.4-17.8-12.5-21.8-22.8
		s-3.8-21.5,0.7-31.5c4.4-10.1,12.5-17.8,22.8-21.8s21.5-3.8,31.5,0.7c15,6.6,24.7,21.4,24.7,37.9
		C295.7,177,294.5,182.6,292.3,187.7z M343.8,157.9L309,178.8v-7.6c0-30-24.5-54.5-54.5-54.5S200,141.2,200,171.2
		c0,2.9,0.3,5.8,0.7,8.2v0.4v0.2l1.3,3.8h-83.7l16-111.4h81.9c1.8,0,3.5-0.7,4.7-1.9l63.3-63.3l37.1,6.2l-5.6,11.2
		c-1,2-0.9,4.4,0.3,6.3l22.8,38h-55.5c-3.6,0-6.6,3-6.6,6.6c0,1.4,0.5,2.8,1.3,3.9l28.8,38.3c1.2,1.6,3.2,2.6,5.3,2.6h31.7V157.9z
		 M343.6,81.9v22.2h-2.9v3h-25.5l-18.9-25.2H343.6z"/>
	<rect x="37" y="97.5" class="st6" width="32.3" height="13.2"/>
</g>
<g>
	<path class="st2" d="M68.4,48.4L68.4,48.4c0.7-2.5,1.1-5.1,1.1-7.8c0-2.7-0.4-5.3-1.1-7.8l0,0l0,0c-0.3-0.9-0.6-1.8-0.9-2.7v-0.3
		c0-0.4-0.2-0.7-0.5-0.8c-0.4-0.8-0.7-1.6-1.2-2.3c0.2,0.1,0.4,0.2,0.6,0.2c0.6,0,1-0.4,1-1v-1c0-0.6-0.4-1-1-1c-0.6,0-1,0.4-1,1v1
		c0,0.1,0,0.1,0,0.2c-0.1-0.1-0.1-0.2-0.2-0.4c0,0,0,0,0-0.1c-0.1-0.1-0.1-0.2-0.2-0.3l0,0c-0.7-1-1.4-2-2.1-3l0,0
		c-0.2-0.2-0.4-0.5-0.6-0.7c0,0,0,0-0.1,0c-0.8-0.9-1.7-1.8-2.6-2.6l0,0c-0.2-0.2-0.5-0.4-0.7-0.6l0,0c-0.9-0.8-1.9-1.5-3-2.1l0,0
		c-0.1-0.1-0.2-0.1-0.3-0.2c0,0,0,0-0.1,0c-0.1-0.4-0.3-0.5-0.4-0.5c0.1,0,0.1,0,0.2,0h1c0.6,0,1-0.4,1-1s-0.4-1-1-1h-1
		c-0.6,0-1,0.4-1,1c0,0.3,0.1,0.5,0.3,0.7c-0.8-0.4-1.5-0.8-2.3-1.2c-0.2-0.3-0.5-0.5-0.9-0.5h-0.3c-0.9-0.3-1.8-0.7-2.7-0.9l0,0
		l0,0c-2.6-0.7-5.2-1.1-7.9-1.1s-5.3,0.4-7.8,1.1l0,0l0,0c-0.9,0.3-1.8,0.6-2.7,0.9h-0.3c-0.4,0-0.7,0.2-0.8,0.5
		c-0.8,0.4-1.6,0.7-2.3,1.2c0.1-0.2,0.2-0.4,0.2-0.6c0-0.6-0.4-1-1-1h-1c-0.6,0-1,0.4-1,1c0,0.6,0.4,1,1,1h1c0.1,0,0.1,0,0.2,0
		c-0.2-0.1-0.4,0-0.5,0.1c0,0-0.1,0-0.1,0.1c-0.1,0.1-0.2,0.1-0.3,0.2l0,0c-1,0.7-2,1.4-3,2.1l0,0c-0.3,0.2-0.5,0.4-0.7,0.6l0,0
		c-1,0.9-1.8,1.7-2.6,2.6c0,0,0,0-0.1,0c-0.2,0.2-0.4,0.5-0.6,0.7l0,0c-0.8,0.9-1.5,1.9-2.1,3l0,0c-0.1,0.1-0.1,0.2-0.2,0.3l0,0
		c-0.2,0.3-0.3,0.4-0.3,0.6c0-0.1,0-0.1,0-0.2v-1c0-0.6-0.4-1-1-1s-1,0.4-1,1v1c0,0.6,0.4,1,1,1c0.3,0,0.5-0.1,0.7-0.3
		c-0.4,0.8-0.8,1.5-1.2,2.3c-0.3,0.2-0.5,0.5-0.5,0.9V30c-0.3,0.9-0.7,1.8-0.9,2.7l0,0l0,0c-0.7,2.6-1.1,5.2-1.1,7.9
		c0,2.7,0.4,5.3,1.1,7.8l0,0l0,0c0.3,0.9,0.6,1.8,0.9,2.7v0.3c0,0.4,0.2,0.7,0.5,0.8c0.4,0.8,0.7,1.6,1.2,2.3
		c-0.2-0.1-0.4-0.2-0.6-0.2c-0.6,0-1,0.4-1,1v1c0,0.6,0.4,1,1,1c0.6,0,1-0.4,1-1v-1c0-0.1,0-0.1,0-0.2c-0.1,0.3,0,0.4,0.1,0.5l0,0
		c0.1,0.1,0.1,0.2,0.2,0.4c0,0,0,0,0.1,0.1c0.6,1,1.3,2,2.1,2.9l0,0c0.2,0.2,0.4,0.5,0.6,0.7l0,0c0.8,0.9,1.7,1.8,2.6,2.6l0,0
		c0.2,0.2,0.5,0.4,0.7,0.6l0,0c0.9,0.8,1.9,1.5,3,2.1l0,0c0.1,0.1,0.2,0.1,0.3,0.2c0,0,0,0,0.1,0c0.1,0.1,0.2,0.2,0.4,0.2
		c-0.1,0-0.1,0-0.2,0h-1c-0.6,0-1,0.4-1,1s0.4,1,1,1h1c0.6,0,1-0.4,1-1c0-0.3-0.1-0.5-0.3-0.7c0.8,0.4,1.5,0.8,2.3,1.2
		c0.2,0.3,0.5,0.5,0.8,0.5h0.3c0.9,0.3,1.8,0.7,2.7,0.9l0,0l0,0c2.5,0.7,5.1,1.1,7.8,1.1s5.3-0.4,7.8-1.1l0,0l0,0
		c0.9-0.3,1.8-0.6,2.7-0.9H51c0.4,0,0.7-0.2,0.8-0.5c0.8-0.4,1.6-0.7,2.3-1.2c-0.1,0.2-0.2,0.4-0.2,0.6c0,0.6,0.4,1,1,1h1
		c0.6,0,1-0.4,1-1s-0.4-1-1-1h-1c-0.1,0-0.1,0-0.2,0c0.1-0.1,0.2-0.1,0.4-0.2h0.1c0.1-0.1,0.2-0.1,0.3-0.2l0,0c1-0.7,2-1.4,3-2.1
		l0,0c0.2-0.2,0.5-0.4,0.7-0.6l0,0c0.9-0.8,1.8-1.7,2.6-2.6l0,0c0.2-0.2,0.4-0.5,0.6-0.7l0,0c0.8-0.9,1.5-1.9,2.1-2.9
		c0,0,0,0,0.1-0.1c0.1-0.1,0.1-0.2,0.2-0.3l0,0c0.1-0.1,0.2-0.3,0.2-0.4c0,0.1,0,0.1,0,0.2v1c0,0.6,0.4,1,1,1c0.6,0,1-0.4,1-1v-1
		c0-0.6-0.4-1-1-1c-0.3,0-0.5,0.1-0.7,0.3c0.4-0.8,0.8-1.5,1.2-2.3c0.3-0.2,0.5-0.5,0.5-0.8v-0.3C67.8,50.3,68.2,49.4,68.4,48.4
		L68.4,48.4z M63.6,54.6c-2.2,3.7-5.4,6.8-9,9c0,0-0.1,0-0.1,0.1c-1.8,1.1-3.7,1.9-5.6,2.6l-2.8-11.2c4.2-1.6,7.5-4.9,9-9l11.2,2.8
		C65.5,50.9,64.7,52.8,63.6,54.6L63.6,54.6z M26.6,63.7C26.5,63.7,26.5,63.7,26.6,63.7c-3.8-2.3-6.9-5.4-9.1-9.1c0,0,0,0,0-0.1
		c-1.1-1.8-1.9-3.7-2.6-5.7L26.1,46c1.6,4.2,4.9,7.5,9,9l-2.8,11.2C30.2,65.6,28.3,64.8,26.6,63.7z M17.4,26.6c2.2-3.7,5.4-6.8,9-9
		c0,0,0.1,0,0.1-0.1c1.8-1.1,3.7-1.9,5.6-2.6l2.8,11.2c-4.2,1.6-7.5,4.9-9,9l-11.1-2.8C15.5,30.3,16.3,28.4,17.4,26.6L17.4,26.6z
		 M25.4,37c-0.3,1.2-0.4,2.4-0.4,3.6c0,1.2,0.2,2.4,0.4,3.6L14.3,47c-0.5-2.1-0.8-4.2-0.8-6.4c0-2.2,0.3-4.3,0.8-6.4L25.4,37z
		 M26.9,40.6C26.9,33.1,33,27,40.5,27s13.6,6.1,13.6,13.6S48,54.2,40.5,54.2S26.9,48.1,26.9,40.6z M54.4,17.5
		C54.5,17.5,54.5,17.5,54.4,17.5c3.8,2.3,6.9,5.4,9.1,9.1c0,0,0,0.1,0.1,0.1c1.1,1.8,1.9,3.7,2.6,5.6L55,35.1c-1.6-4.2-4.9-7.5-9-9
		l2.8-11.2C50.8,15.6,52.7,16.4,54.4,17.5z M67.5,40.6c0,2.2-0.3,4.3-0.8,6.4l-11.1-2.8c0.3-1.2,0.4-2.4,0.4-3.6s-0.2-2.4-0.4-3.6
		l11.1-2.8C67.2,36.3,67.5,38.4,67.5,40.6z M46.9,14.4l-2.8,11.1c-1.2-0.3-2.4-0.4-3.6-0.4c-1.2,0-2.4,0.2-3.6,0.4l-2.8-11.1
		c2.1-0.5,4.2-0.8,6.4-0.8S44.8,13.9,46.9,14.4z M34.1,66.8l2.8-11.1c1.2,0.3,2.4,0.4,3.6,0.4s2.4-0.2,3.6-0.4l2.8,11.1
		c-2,0.5-4.2,0.8-6.4,0.8C38.3,67.6,36.2,67.3,34.1,66.8z"/>
	<path class="st2" d="M15.5,17.2c0.3,0,0.6-0.1,0.8-0.4c0.2-0.2,0.3-0.4,0.5-0.5c0.4-0.3,0.5-1,0.2-1.4c-0.4-0.4-1-0.5-1.5-0.1
		c-0.3,0.2-0.6,0.5-0.8,0.8c-0.4,0.4-0.3,1.1,0.1,1.4C15,17.2,15.2,17.2,15.5,17.2z"/>
	<path class="st2" d="M14.5,21.9c0.6,0,1-0.4,1-1v-1c0-0.6-0.4-1-1-1s-1,0.4-1,1v1C13.5,21.5,13.9,21.9,14.5,21.9z"/>
	<path class="st2" d="M19.8,15.6h1c0.6,0,1-0.4,1-1s-0.4-1-1-1h-1c-0.6,0-1,0.4-1,1S19.3,15.6,19.8,15.6z"/>
	<path class="st2" d="M65.5,19.9v1c0,0.6,0.4,1,1,1s1-0.4,1-1v-1c0-0.6-0.4-1-1-1S65.5,19.4,65.5,19.9z"/>
	<path class="st2" d="M64.8,16.9c0.2,0.2,0.5,0.4,0.8,0.4c0.2,0,0.4-0.1,0.6-0.2c0.4-0.3,0.5-1,0.2-1.4c-0.2-0.3-0.5-0.6-0.8-0.8
		c-0.4-0.3-1.1-0.3-1.4,0.2c-0.3,0.4-0.3,1.1,0.2,1.4C64.4,16.5,64.6,16.7,64.8,16.9z"/>
	<path class="st2" d="M60.2,15.6h1c0.6,0,1-0.4,1-1s-0.4-1-1-1h-1c-0.6,0-1,0.4-1,1S59.6,15.6,60.2,15.6z"/>
	<path class="st2" d="M64.8,64.3c-0.2,0.2-0.3,0.4-0.5,0.5c-0.4,0.3-0.5,1-0.2,1.4c0.2,0.2,0.5,0.4,0.8,0.4c0.2,0,0.4-0.1,0.6-0.2
		c0.3-0.2,0.6-0.5,0.8-0.8c0.3-0.4,0.3-1.1-0.2-1.4C65.7,63.8,65.1,63.9,64.8,64.3z"/>
	<path class="st2" d="M61.2,65.6h-1c-0.6,0-1,0.4-1,1s0.4,1,1,1h1c0.6,0,1-0.4,1-1S61.7,65.6,61.2,65.6z"/>
	<path class="st2" d="M66.5,59.3c-0.6,0-1,0.4-1,1v1c0,0.6,0.4,1,1,1s1-0.4,1-1v-1C67.5,59.7,67.1,59.3,66.5,59.3z"/>
	<path class="st2" d="M20.8,65.6h-1c-0.6,0-1,0.4-1,1s0.4,1,1,1h1c0.6,0,1-0.4,1-1S21.4,65.6,20.8,65.6z"/>
	<path class="st2" d="M15.5,61.3v-1c0-0.6-0.4-1-1-1s-1,0.4-1,1v1c0,0.6,0.4,1,1,1S15.5,61.8,15.5,61.3z"/>
	<path class="st2" d="M16.2,64.3c-0.3-0.4-1-0.5-1.4-0.2c-0.4,0.3-0.5,1-0.2,1.4c0.2,0.3,0.5,0.6,0.8,0.8c0.3,0.3,0.5,0.3,0.7,0.3
		c0.3,0,0.6-0.1,0.8-0.4c0.3-0.4,0.3-1.1-0.2-1.4C16.6,64.7,16.4,64.5,16.2,64.3z"/>
</g>
<path class="st5" d="M72.5,39.4c-1.3-1.3-3-2-4.8-2h-9.4v-8.3c0-5.4-3.3-10.2-8.3-12.2c-1.7-0.7-3.8-1.2-5.7-0.8
	c1-3.6-1.2-7.3-4.8-8.3s-7.3,1.2-8.3,4.8c-1,3.6,1.2,7.3,4.8,8.3c1.3,0.4,2.7,0.3,4-0.2l-3.8,6.5l-8.5,4.2c-1.1,0.6-2,1.6-2.3,2.8
	h-2c-1.5,0-3,0.7-4,1.8c-1.3-3.5-5.2-5.2-8.6-3.9c-3.5,1.3-5.2,5.2-3.9,8.6c0.4,1,0.9,1.8,1.7,2.5H7.4c-0.5,0-0.9,0.4-0.9,0.9v7.9
	c0,0.5,0.4,0.9,0.9,0.9h3.7v19.4c0,0.5,0.4,0.9,0.9,0.9h6.4c0.5,0,0.9-0.4,0.9-0.9V61.6c0.1,0,0.1,0,0.2,0c1.5,0,2.8-0.9,3.5-2.2
	l2.7-6.3h13.2l-1.4,1.8c-0.7,0.8-1.2,1.8-1.2,2.9v11.4c0,2.3,1.7,4.1,4,4.2h0.1c2.3,0,4.1-1.8,4.1-4.1v-9.8l3-2.9L47.1,59
	c-0.1,0.4-0.1,0.9,0,1.3l1.5,9.4c0.3,2.1,2,3.6,4.1,3.6c0.2,0,0.3,0,0.5,0c2.3-0.3,3.9-2.3,3.6-4.6c0,0,0,0,0,0L55.3,60l1.4-6.9h5
	v19.4c0,0.5,0.4,0.9,0.9,0.9h6.4c0.5,0,0.9-0.4,0.9-0.9V53h3.7c0.5,0,0.9-0.4,0.9-0.9v-7.9C74.5,42.3,73.8,40.6,72.5,39.4L72.5,39.4
	z M37.8,19.2c-2.7,0-4.9-2.2-4.9-4.9s2.2-4.9,4.9-4.9c2.7,0,4.9,2.2,4.9,4.9l0,0C42.7,17,40.5,19.2,37.8,19.2L37.8,19.2z M28.6,33
	l8.7-4.3c0.2-0.1,0.3-0.2,0.4-0.4l5.5-9.4c0.4-0.6,1-1,1.7-1.1c0.1,0,0.2,0,0.3,0c6.2,0,11.2,5,11.3,11.3v8.3h-0.1
	c-2-1.8-4.4-2.8-7.1-3.1l0.5-3.3c0.4-2.7-1-5.4-3.6-6.5c-0.4-0.2-0.9,0-1.2,0.4l-3.9,6.6c-0.2,0.4-0.6,0.7-0.9,0.9l-9.7,4.8
	c-1.1,0.5-2.5,0.1-3-1c0,0,0,0,0-0.1c-0.1-0.3-0.2-0.6-0.2-0.9C27.3,34.3,27.8,33.4,28.6,33L28.6,33z M47.9,30.7l-0.5,3.5h-6.8
	L41,34c0.7-0.4,1.3-0.9,1.7-1.6l3.4-5.9C47.5,27.5,48.2,29.1,47.9,30.7L47.9,30.7z M8.4,38.4c0-2.7,2.2-4.9,4.9-4.9s4.9,2.2,4.9,4.9
	s-2.2,4.9-4.9,4.9l0,0C10.6,43.2,8.4,41,8.4,38.4L8.4,38.4z M18.1,43v0.2h-0.2C17.9,43.1,18,43.1,18.1,43L18.1,43z M12.1,51.2H8.4
	v-6.1h9.7v6.1L12.1,51.2z M17.5,53.2l-1.3,3c-0.5,1.2-0.4,2.5,0.2,3.6c0.3,0.5,0.7,0.9,1.1,1.2v10.6H13V53h4.5V53.2z M25.2,43.2
	c-0.5,0-0.9,0.4-0.9,0.9v7.7l-2.9,6.7c-0.4,0.8-1.3,1.3-2.2,1.1c-1-0.3-1.6-1.3-1.4-2.3c0-0.1,0.1-0.3,0.1-0.4l2-4.5l0,0
	c0-0.1,0-0.1,0.1-0.2c0-0.1,0-0.1,0-0.2V39.6c0-2,1.6-3.6,3.6-3.6h1.9c0.1,0.3,0.1,0.5,0.3,0.8c0.5,1,1.3,1.8,2.4,2.2
	s2.2,0.3,3.2-0.2l5.6-2.8H48c0.1,0,0.1,0,0.2,0c2.7,0.1,5.2,1.1,7.1,2.9c0.2,0.2,0.4,0.3,0.6,0.3h11.7c2.3,0,4.4,1.7,4.8,4
	L25.2,43.2z M48.2,53.2L43,58.4c-0.2,0.2-0.3,0.4-0.3,0.7v10.2c0,1.2-1,2.3-2.3,2.3c0,0,0,0-0.1,0c-1.2-0.1-2.2-1.1-2.2-2.4V57.7
	c0-0.6,0.2-1.2,0.7-1.6c0,0,0.1-0.1,0.1-0.1l2.3-3h7L48.2,53.2z M52.9,71.5c-1.2,0.2-2.4-0.7-2.5-2c0,0,0,0,0-0.1l-1.5-9.4
	c0-0.2,0-0.5,0-0.7l1-5.2l1.2-1.1h3.7l-1.3,6.7c0,0.1,0,0.2,0,0.3l1.5,8.9C55,70.2,54.1,71.3,52.9,71.5L52.9,71.5z M68,71.5h-4.5V53
	H68V71.5z M72.6,51.2H26.1v-6.1h46.5L72.6,51.2z"/>
<g class="st0">
	<g class="st1">
		<path class="st5" d="M64.1,9.7H16.9c-4,0-7.2,3.2-7.2,7.2v47.1c0,4,3.2,7.2,7.2,7.2h47.1c4,0,7.2-3.2,7.2-7.2V16.9
			C71.3,13,68,9.7,64.1,9.7z M66.5,64.1c0,1.3-1.1,2.4-2.4,2.4H16.9c-1.3,0-2.4-1.1-2.4-2.4V16.9c0-1.3,1.1-2.4,2.4-2.4h47.1
			c1.3,0,2.4,1.1,2.4,2.4V64.1z"/>
		<path class="st2" d="M64.1,72.2H16.9c-4.5,0-8.2-3.7-8.2-8.2V16.9c0-4.5,3.7-8.2,8.2-8.2h47.1c4.5,0,8.2,3.7,8.2,8.2v47.1
			C72.2,68.6,68.6,72.2,64.1,72.2z M16.9,10.7c-3.4,0-6.3,2.8-6.3,6.3v47.1c0,3.4,2.8,6.3,6.3,6.3h47.1c3.4,0,6.3-2.8,6.3-6.3V16.9
			c0-3.4-2.8-6.3-6.3-6.3H16.9z M64.1,67.4H16.9c-1.9,0-3.4-1.5-3.4-3.4V16.9c0-1.9,1.5-3.4,3.4-3.4h47.1c1.9,0,3.4,1.5,3.4,3.4
			v47.1C67.4,65.9,65.9,67.4,64.1,67.4z M16.9,15.5c-0.8,0-1.4,0.6-1.4,1.4v47.1c0,0.8,0.6,1.4,1.4,1.4h47.1c0.8,0,1.4-0.6,1.4-1.4
			V16.9c0-0.8-0.6-1.4-1.4-1.4H16.9z"/>
	</g>
	<g class="st1">
		<path class="st5" d="M44.1,21.7H27.3v37.5h4.8V45.8h12c6.6,0,12-5.4,12-12S50.7,21.7,44.1,21.7z M44.1,41h-12V26.6h12
			c4,0,7.2,3.2,7.2,7.2S48.1,41,44.1,41z"/>
		<path class="st2" d="M33,60.2h-6.7V20.8h17.8c7.2,0,13,5.8,13,13s-5.8,13-13,13H33V60.2z M28.2,58.3h2.9V44.8h13
			c6.1,0,11.1-5,11.1-11.1s-5-11.1-11.1-11.1H28.2V58.3z M44.1,41.9h-13V25.6h13c4.5,0,8.2,3.7,8.2,8.2S48.6,41.9,44.1,41.9z M33,40
			h11.1c3.4,0,6.3-2.8,6.3-6.3c0-3.4-2.8-6.3-6.3-6.3H33V40z"/>
	</g>
</g>
<g class="st0">
	<g class="st1">
		<g>
			<path class="st2" d="M33.7,25.9c-0.6,0-1.1,0.5-1.1,1.1v1.1c0,0.6,0.5,1.1,1.1,1.1s1.1-0.5,1.1-1.1V27
				C34.8,26.4,34.3,25.9,33.7,25.9z"/>
		</g>
	</g>
	<g class="st1">
		<g>
			<path class="st2" d="M47.3,25.9c-0.6,0-1.1,0.5-1.1,1.1v1.1c0,0.6,0.5,1.1,1.1,1.1s1.1-0.5,1.1-1.1V27
				C48.3,26.4,47.8,25.9,47.3,25.9z"/>
		</g>
	</g>
	<g class="st1">
		<g>
			<path class="st2" d="M44.6,34.1c-0.4-0.4-1.1-0.4-1.5,0c-0.4,0.4-1.3,0.8-2.6,0.8s-2.3-0.5-2.6-0.8c-0.4-0.4-1.1-0.4-1.5,0
				c-0.4,0.4-0.4,1.1,0,1.5c0.9,0.9,2.4,1.4,4.1,1.4s3.2-0.5,4.1-1.4C45,35.2,45,34.5,44.6,34.1z"/>
		</g>
	</g>
	<g class="st1">
		<g>
			<path class="st2" d="M63,53.9l-8.6-2.5l-3-4.1c-0.5-0.6-1.2-1-1.9-1c0,0,0,0,0,0v-3c3.5-2.4,6-6.3,6.6-10.7h0.6
				c2.1,0,3.8-1.5,4-3.5c0.1-1.1-0.3-2.2-1-3c-0.4-0.4-0.8-0.7-1.3-0.9v-6.1l0,0c0-0.1,0-0.2,0-0.3l-2.7-11c-0.5-2-2.3-3.4-4.3-3.4
				H29.6c-2,0-3.8,1.4-4.3,3.4l-2.7,11c0,0.1,0,0.2,0,0.3l0,0v6.1c-1.2,0.6-2.1,1.7-2.2,3.1c-0.1,1.1,0.3,2.2,1,3
				c0.7,0.8,1.8,1.3,2.9,1.3h0.8c0.6,4.4,3.1,8.3,6.6,10.7v3c0,0,0,0,0,0c-0.8,0-1.5,0.4-1.9,1l-3.1,4L18,53.9
				c-3.3,1-5.6,4.1-5.6,7.5v14.1c0,0.6,0.5,1.1,1.1,1.1c0.6,0,1.1-0.5,1.1-1.1V61.4c0-2.5,1.7-4.8,4.1-5.5l8.6-2.5
				c1.2,1.2,2.6,2.2,4.2,3H27c-3.1,0-5.6,2.5-5.6,5.6c0,0.6,0.5,1.1,1.1,1.1s1.1-0.5,1.1-1.1c0-1.9,1.5-3.5,3.5-3.5h13.5
				c5.3,0,10.2-1.9,13.3-5.1l8.6,2.5c2.4,0.7,4.1,3,4.1,5.5v14.1c0,0.6,0.5,1.1,1.1,1.1c0.6,0,1.1-0.5,1.1-1.1V61.4
				C68.6,57.9,66.3,54.8,63,53.9z M25.5,15.6h21.7c0.6,0,1.1-0.5,1.1-1.1c0-0.6-0.5-1.1-1.1-1.1H26.1l1.3-5.2c0.3-1,1.2-1.8,2.3-1.8
				h21.8c1.1,0,2,0.7,2.3,1.8l1.3,5.2h-3.2c-0.6,0-1.1,0.5-1.1,1.1c0,0.6,0.5,1.1,1.1,1.1h3.7l0.6,2.4H24.9L25.5,15.6z M56.4,20.1
				v4.7h-1.2c-0.7,0-1.2-0.5-1.2-1.2v-3.5H56.4L56.4,20.1z M24.6,20.1H27v3.5c0,0.7-0.5,1.2-1.2,1.2h-1.2L24.6,20.1L24.6,20.1z
				 M26.9,30.4c0-0.6-0.5-1.1-1.1-1.1c-0.6,0-1.1,0.5-1.1,1.1v0.1h-0.6c-0.5,0-1-0.2-1.3-0.6c-0.3-0.4-0.5-0.9-0.5-1.4
				c0.1-0.9,0.9-1.6,1.9-1.6h1.5c1.8,0,3.3-1.5,3.3-3.3v-3.5h22.7v3.5c0,1.8,1.5,3.3,3.3,3.3h1.7c0.5,0,1,0.2,1.3,0.6
				c0.3,0.4,0.5,0.9,0.5,1.4c-0.1,0.9-0.9,1.6-1.9,1.6h-0.5v-0.1c0-0.6-0.5-1.1-1.1-1.1l0,0c-0.6,0-1.1,0.5-1.1,1.1
				C54.1,37.9,48,44,40.5,44S26.9,37.9,26.9,30.4z M28.7,51.9l2.5-3.4c0.1-0.1,0.2-0.2,0.3-0.2c0.1,0,0.2,0,0.3,0.1
				c1.2,1.3,3.1,2.3,5.2,2.8c0,0,0,0,0,0.1v4.7C33.8,55.5,30.8,54.1,28.7,51.9z M41.7,51.4v5c-0.8,0-1.6,0-2.4,0v-5
				c0-1-0.7-1.9-1.6-2.1c-1.6-0.4-3.1-1.1-4-2v-2.7c2.1,1,4.4,1.6,6.8,1.6c2.4,0,4.8-0.6,6.8-1.6v2.7c-0.9,0.9-2.4,1.6-4,2
				C42.4,49.5,41.7,50.4,41.7,51.4z M43.8,56.1v-4.7c0,0,0-0.1,0-0.1c2.2-0.5,4-1.5,5.2-2.8c0.1-0.1,0.2-0.1,0.3-0.1c0,0,0,0,0,0
				c0.1,0,0.3,0.1,0.3,0.2l2.5,3.4C50.2,54.1,47.2,55.5,43.8,56.1z"/>
		</g>
	</g>
	<g class="st1">
		<g>
			<path class="st2" d="M34.9,22.5h-2.3c-0.6,0-1.1,0.5-1.1,1.1s0.5,1.1,1.1,1.1h2.3c0.6,0,1.1-0.5,1.1-1.1S35.4,22.5,34.9,22.5z"/>
		</g>
	</g>
	<g class="st1">
		<g>
			<path class="st2" d="M48.4,22.5h-2.3c-0.6,0-1.1,0.5-1.1,1.1s0.5,1.1,1.1,1.1h2.3c0.6,0,1.1-0.5,1.1-1.1S49,22.5,48.4,22.5z"/>
		</g>
	</g>
	<g class="st1">
		<g>
			<path class="st2" d="M22.4,65.4c-0.6,0-1.1,0.5-1.1,1.1v9c0,0.6,0.5,1.1,1.1,1.1c0.6,0,1.1-0.5,1.1-1.1v-9
				C23.5,65.9,23,65.4,22.4,65.4z"/>
		</g>
	</g>
	<g class="st1">
		<g>
			<path class="st2" d="M27,62L27,62c-0.6,0-1.1,0.5-1.1,1.1s0.5,1.1,1.1,1.1s1.1-0.5,1.1-1.1S27.6,62,27,62z"/>
		</g>
	</g>
	<g class="st1">
		<g>
			<path class="st2" d="M54.1,62L54.1,62c-0.6,0-1.1,0.5-1.1,1.1s0.5,1.1,1.1,1.1s1.1-0.5,1.1-1.1S54.6,62,54.1,62z"/>
		</g>
	</g>
	<g class="st1">
		<g>
			<path class="st2" d="M54.1,67.6L54.1,67.6c-0.6,0-1.1,0.5-1.1,1.1s0.5,1.1,1.1,1.1s1.1-0.5,1.1-1.1S54.6,67.6,54.1,67.6z"/>
		</g>
	</g>
	<g class="st1">
		<g>
			<path class="st2" d="M27,67.6L27,67.6c-0.6,0-1.1,0.5-1.1,1.1s0.5,1.1,1.1,1.1s1.1-0.5,1.1-1.1S27.6,67.6,27,67.6z"/>
		</g>
	</g>
	<g class="st1">
		<g>
			<path class="st2" d="M54.1,73.3L54.1,73.3c-0.6,0-1.1,0.5-1.1,1.1s0.5,1.1,1.1,1.1s1.1-0.5,1.1-1.1S54.6,73.3,54.1,73.3z"/>
		</g>
	</g>
	<g class="st1">
		<g>
			<path class="st2" d="M27,73.3L27,73.3c-0.6,0-1.1,0.5-1.1,1.1s0.5,1.1,1.1,1.1s1.1-0.5,1.1-1.1S27.6,73.3,27,73.3z"/>
		</g>
	</g>
</g>
</svg>
