<?xml version="1.0" encoding="UTF-8" standalone="no"?>
<!DOCTYPE svg PUBLIC "-//W3C//DTD SVG 1.1//EN" "http://www.w3.org/Graphics/SVG/1.1/DTD/svg11.dtd">
<svg width="100%" height="100%" viewBox="0 0 500 500" version="1.1" xmlns="http://www.w3.org/2000/svg" xmlns:xlink="http://www.w3.org/1999/xlink" xml:space="preserve" xmlns:serif="http://www.serif.com/" style="fill-rule:evenodd;clip-rule:evenodd;stroke-linejoin:round;stroke-miterlimit:2;">
    <path d="M484.85,124.74C484.822,116.258 484.046,107.795 482.53,99.45C480.59,89.26 477.86,79.33 472.98,70.12C467.897,60.417 461.282,51.596 453.39,44C441.469,32.331 426.741,23.926 410.63,19.6C395.8,15.6 380.63,14.76 365.42,14.78C365.37,14.713 365.338,14.633 365.33,14.55L134.59,14.55L134.59,14.78C125.94,14.94 117.27,14.87 108.67,15.94C99.239,16.937 89.955,19.017 81,22.14C67.074,27.277 54.503,35.527 44.25,46.26C32.497,58.204 24.032,72.988 19.68,89.17C15.74,103.89 14.88,118.9 14.86,134.02L14.7,365.69C14.98,376.14 15.07,386.69 16.83,397.05C18.7,408.05 21.37,418.76 26.47,428.74C33.253,442.112 42.919,453.814 54.77,463C63.23,469.743 72.814,474.939 83.08,478.35C98.2,483.23 113.8,485.1 129.63,485.19C139.51,485.25 149.37,485.5 159.25,485.46C230.99,485.16 302.74,485.98 374.48,485.02C383.957,484.812 393.401,483.808 402.71,482.02C420.314,478.919 436.7,470.942 450,459C465.78,444.92 476.43,427.7 481.24,406.91C484.39,393.32 485.17,379.53 485.31,365.7L485.31,362.94C485.3,361.86 484.89,127.84 484.85,124.74ZM394.85,176.29C394.85,176.29 400.28,255.98 359.08,302.62C359.08,302.62 330.53,362.79 261.71,382.71C261.71,382.71 252.22,395.44 151.25,393.18C151.25,393.18 120.46,393.63 72.01,364.18C72.01,364.18 137.67,371.88 179.78,332.48C179.78,332.48 133.59,332.03 112.31,283.58C112.31,283.58 134.95,285.39 144.91,281.32C144.91,281.32 86.91,266.38 87.4,207.51C87.4,207.51 108.23,218.38 119.1,215.66C119.1,215.66 66.1,177.66 95.55,118.31C95.55,118.31 165.73,197.1 247.69,192.57C247.69,192.57 235.01,138.23 296.59,110.16C296.59,110.16 350.47,94.76 373.11,127.37C373.11,127.37 407.98,124.2 419.3,111.07C419.3,111.07 423.38,121.94 390.3,150.46C390.3,150.46 412.94,149.1 427.88,140.46C428,140.52 427.5,154.56 394.9,176.29L394.85,176.29Z" style="fill:rgb(29,161,242);fill-rule:nonzero;"/>
</svg>
